<svg width="40" height="40" viewBox="0 0 40 40" fill="none" xmlns="http://www.w3.org/2000/svg">
<circle cx="20" cy="20" r="4" fill="url(#paint0_radial_1515_2318)"/>
<path fill-rule="evenodd" clip-rule="evenodd" d="M9.52902 19.0432C8.79399 17.7598 8.22205 16.5008 7.82458 15.3085C6.74234 12.0621 7.03699 9.62866 8.33339 8.33226C9.62978 7.03587 12.0632 6.74122 15.3096 7.82345C16.5022 8.22101 17.7614 8.79311 19.0451 9.52837C17.2746 10.688 15.4982 12.1271 13.8117 13.8135C12.1264 15.4988 10.6883 17.2739 9.52902 19.0432ZM8.92977 19.9984C5.89082 14.9276 5.20428 10.0472 7.62628 7.62516C10.0484 5.203 14.9294 5.88978 20.0005 8.92924C25.0714 5.89007 29.9521 5.20344 32.3742 7.6255C34.7961 10.0474 34.1096 14.9277 31.0709 19.9984C34.1118 25.0706 34.7994 29.953 32.3767 32.3756C29.9543 34.7981 25.0724 34.1108 20.0005 31.0703C14.9284 34.1111 10.0463 34.7985 7.62369 32.376C5.20101 29.9533 5.88862 25.0707 8.92977 19.9984ZM19.0453 30.4712C17.7606 31.2072 16.5005 31.7798 15.3071 32.1777C12.0606 33.2599 9.6272 32.9653 8.3308 31.6689C7.0344 30.3725 6.73975 27.939 7.82199 24.6926C8.2199 23.499 8.79265 22.2386 9.52884 20.9537C10.6886 22.7244 12.1277 24.5009 13.8143 26.1876C15.5 27.8733 17.2756 29.3118 19.0453 30.4712ZM20.0005 29.8964C18.1623 28.7375 16.2956 27.2546 14.5214 25.4805C12.7464 23.7054 11.2629 21.8377 10.1036 19.9985C11.2625 18.1607 12.7451 16.2944 14.5188 14.5207C16.2938 12.7457 18.1614 11.2622 20.0005 10.1031C21.8394 11.2622 23.7068 12.7455 25.4816 14.5203C27.2555 16.2942 28.7382 18.1606 29.897 19.9985C28.7378 21.8378 27.2542 23.7056 25.479 25.4808C23.705 27.2548 21.8385 28.7375 20.0005 29.8964ZM20.9557 30.4711C22.2402 31.207 23.5001 31.7795 24.6934 32.1773C27.9398 33.2596 30.3732 32.9649 31.6696 31.6685C32.966 30.3721 33.2607 27.9387 32.1784 24.6923C31.7806 23.4988 31.2079 22.2385 30.4718 20.9537C29.312 22.7245 27.8728 24.5012 26.1861 26.1879C24.5006 27.8735 22.7252 29.3118 20.9557 30.4711ZM30.4716 19.0432C31.2066 17.7599 31.7784 16.5011 32.1759 15.3089C33.2581 12.0625 32.9634 9.629 31.667 8.33261C30.3707 7.03621 27.9372 6.74156 24.6908 7.8238C23.4984 8.2213 22.2394 8.79329 20.9559 9.52839C22.7262 10.688 24.5024 12.1269 26.1887 13.8132C27.8741 15.4986 29.3124 17.2738 30.4716 19.0432Z" fill="url(#paint1_radial_1515_2318)"/>
<path fill-rule="evenodd" clip-rule="evenodd" d="M9.52902 19.0432C8.79399 17.7598 8.22205 16.5008 7.82458 15.3085C6.74234 12.0621 7.03699 9.62866 8.33339 8.33226C9.62978 7.03587 12.0632 6.74122 15.3096 7.82345C16.5022 8.22101 17.7614 8.79311 19.0451 9.52837C17.2746 10.688 15.4982 12.1271 13.8117 13.8135C12.1264 15.4988 10.6883 17.2739 9.52902 19.0432ZM8.92977 19.9984C5.89082 14.9276 5.20428 10.0472 7.62628 7.62516C10.0484 5.203 14.9294 5.88978 20.0005 8.92924C25.0714 5.89007 29.9521 5.20344 32.3742 7.6255C34.7961 10.0474 34.1096 14.9277 31.0709 19.9984C34.1118 25.0706 34.7994 29.953 32.3767 32.3756C29.9543 34.7981 25.0724 34.1108 20.0005 31.0703C14.9284 34.1111 10.0463 34.7985 7.62369 32.376C5.20101 29.9533 5.88862 25.0707 8.92977 19.9984ZM19.0453 30.4712C17.7606 31.2072 16.5005 31.7798 15.3071 32.1777C12.0606 33.2599 9.6272 32.9653 8.3308 31.6689C7.0344 30.3725 6.73975 27.939 7.82199 24.6926C8.2199 23.499 8.79265 22.2386 9.52884 20.9537C10.6886 22.7244 12.1277 24.5009 13.8143 26.1876C15.5 27.8733 17.2756 29.3118 19.0453 30.4712ZM20.0005 29.8964C18.1623 28.7375 16.2956 27.2546 14.5214 25.4805C12.7464 23.7054 11.2629 21.8377 10.1036 19.9985C11.2625 18.1607 12.7451 16.2944 14.5188 14.5207C16.2938 12.7457 18.1614 11.2622 20.0005 10.1031C21.8394 11.2622 23.7068 12.7455 25.4816 14.5203C27.2555 16.2942 28.7382 18.1606 29.897 19.9985C28.7378 21.8378 27.2542 23.7056 25.479 25.4808C23.705 27.2548 21.8385 28.7375 20.0005 29.8964ZM20.9557 30.4711C22.2402 31.207 23.5001 31.7795 24.6934 32.1773C27.9398 33.2596 30.3732 32.9649 31.6696 31.6685C32.966 30.3721 33.2607 27.9387 32.1784 24.6923C31.7806 23.4988 31.2079 22.2385 30.4718 20.9537C29.312 22.7245 27.8728 24.5012 26.1861 26.1879C24.5006 27.8735 22.7252 29.3118 20.9557 30.4711ZM30.4716 19.0432C31.2066 17.7599 31.7784 16.5011 32.1759 15.3089C33.2581 12.0625 32.9634 9.629 31.667 8.33261C30.3707 7.03621 27.9372 6.74156 24.6908 7.8238C23.4984 8.2213 22.2394 8.79329 20.9559 9.52839C22.7262 10.688 24.5024 12.1269 26.1887 13.8132C27.8741 15.4986 29.3124 17.2738 30.4716 19.0432Z" fill="black" fill-opacity="0.16"/>
<defs>
<radialGradient id="paint0_radial_1515_2318" cx="0" cy="0" r="1" gradientUnits="userSpaceOnUse" gradientTransform="translate(18.4 18.4) rotate(42.3246) scale(7.5743)">
<stop stop-color="#7EFFC4"/>
<stop offset="0.458333" stop-color="#71DCFF"/>
<stop offset="1" stop-color="#858AFF"/>
</radialGradient>
<radialGradient id="paint1_radial_1515_2318" cx="0" cy="0" r="1" gradientUnits="userSpaceOnUse" gradientTransform="translate(18.0226 17.6274) rotate(32.572) scale(16.8912 16.8906)">
<stop stop-color="#DAFFEE"/>
<stop offset="0.0001" stop-color="#DAFFEE"/>
<stop offset="0.65625" stop-color="#CFF3FF"/>
<stop offset="1" stop-color="#DADBFF"/>
</radialGradient>
</defs>
</svg>
