<svg width="40" height="40" viewBox="0 0 40 40" fill="none" xmlns="http://www.w3.org/2000/svg">
<path fill-rule="evenodd" clip-rule="evenodd" d="M23.2016 2.53953C23.4044 2.62532 23.5273 2.83372 23.5041 3.05272L22.4972 12.5527C22.4681 12.8273 22.2219 13.0263 21.9473 12.9972C21.6727 12.9681 21.4737 12.7219 21.5028 12.4473L22.3359 4.58613L7.8045 22.0239C7.49291 22.3978 7.28173 22.652 7.14449 22.8507C7.00708 23.0496 7.00034 23.1165 7.00005 23.1193C6.99832 23.2346 7.04966 23.3443 7.1393 23.4167C7.14166 23.4183 7.19738 23.456 7.43822 23.4778C7.67871 23.4995 8.00918 23.5 8.4959 23.5H15.5C15.7761 23.5 16 23.7239 16 24C16 24.2762 15.7761 24.5 15.5 24.5H8.47103C8.01544 24.5 7.63918 24.5 7.34805 24.4737C7.062 24.4478 6.75331 24.3905 6.51077 24.1945C6.18208 23.9289 5.99378 23.5268 6.00016 23.1043C6.00486 22.7925 6.15845 22.5187 6.32168 22.2823C6.4878 22.0418 6.72868 21.7528 7.02035 21.4028L22.6227 2.67994C22.7637 2.51075 22.9988 2.45374 23.2016 2.53953Z" fill="url(#paint0_radial_1515_2329)"/>
<path d="M17.4299 34.6155L18.7568 24L19.3101 18.7889C19.4181 17.7717 20.2761 17 21.2989 17H31.5178C32.4713 17 32.948 17 33.1886 17.1944C33.3978 17.3635 33.5176 17.6193 33.5136 17.8882C33.5089 18.1975 33.2037 18.5638 32.5933 19.2963L19.1904 35.3797C18.5511 36.1468 17.306 35.6063 17.4299 34.6155Z" fill="url(#paint1_radial_1515_2329)"/>
<defs>
<radialGradient id="paint0_radial_1515_2329" cx="0" cy="0" r="1" gradientUnits="userSpaceOnUse" gradientTransform="translate(15 11.5) rotate(50.7106) scale(14.2127 19.7398)">
<stop stop-color="white"/>
<stop offset="1" stop-color="white" stop-opacity="0.1"/>
</radialGradient>
<radialGradient id="paint1_radial_1515_2329" cx="0" cy="0" r="1" gradientUnits="userSpaceOnUse" gradientTransform="translate(20.499 17.5) rotate(56.3099) scale(12.6194 26.8422)">
<stop stop-color="#D4FFEB"/>
<stop offset="0.265625" stop-color="#7EFFC4"/>
<stop offset="0.708333" stop-color="#71DCFF"/>
<stop offset="1" stop-color="#858AFF"/>
</radialGradient>
</defs>
</svg>
