<svg width="372" height="250" viewBox="0 0 372 250" fill="none" xmlns="http://www.w3.org/2000/svg">
<g filter="url(#filter0_d_14_3307)">
<g clip-path="url(#clip0_14_3307)">
<rect x="16.25" y="7" width="340" height="217" rx="9.29" fill="#142229"/>
<g clip-path="url(#clip1_14_3307)">
<mask id="path-2-inside-1_14_3307" fill="white">
<path d="M16.25 7H355.75V27.5369H16.25V7Z"/>
</mask>
<path d="M16.25 7H355.75V27.5369H16.25V7Z" fill="#0B181E"/>
<path fill-rule="evenodd" clip-rule="evenodd" d="M20.1809 7C18.0099 7 16.25 8.7599 16.25 10.9308V27.4404H356.25V10.9308C356.25 8.7599 354.49 7 352.319 7H20.1809Z" fill="#142229"/>
<path d="M312.812 17.5491C312.976 17.5491 313.114 17.4151 313.114 17.256V13.9906L313.089 13.4882L313.265 13.6808L313.726 14.179C313.78 14.2376 313.856 14.2669 313.927 14.2669C314.086 14.2669 314.203 14.1581 314.203 14.0073C314.203 13.9236 314.17 13.865 314.111 13.8106L313.03 12.7765C312.955 12.7012 312.892 12.6761 312.812 12.6761C312.737 12.6761 312.674 12.7012 312.594 12.7765L311.513 13.8106C311.458 13.865 311.425 13.9236 311.425 14.0073C311.425 14.1581 311.538 14.2669 311.697 14.2669C311.769 14.2669 311.848 14.2376 311.903 14.179L312.364 13.6808L312.54 13.4882L312.515 13.9906V17.256C312.515 17.4151 312.653 17.5491 312.812 17.5491ZM310.935 20.1447H314.694C315.41 20.1447 315.762 19.793 315.762 19.0897V15.8703C315.762 15.167 315.41 14.8153 314.694 14.8153H313.793V15.4224H314.685C314.983 15.4224 315.159 15.5856 315.159 15.8996V19.0604C315.159 19.3785 314.983 19.5376 314.685 19.5376H310.943C310.641 19.5376 310.469 19.3785 310.469 19.0604V15.8996C310.469 15.5856 310.641 15.4224 310.943 15.4224H311.836V14.8153H310.935C310.222 14.8153 309.866 15.167 309.866 15.8703V19.0897C309.866 19.793 310.222 20.1447 310.935 20.1447Z" fill="#767676"/>
<path d="M328.741 19.6101C328.926 19.6101 329.078 19.4625 329.078 19.277V17.1472H331.157C331.338 17.1472 331.495 16.9912 331.495 16.8056C331.495 16.6201 331.338 16.464 331.157 16.464H329.078V14.3301C329.078 14.1445 328.926 13.9969 328.741 13.9969C328.555 13.9969 328.399 14.1445 328.399 14.3301V16.464H326.324C326.139 16.464 325.982 16.6201 325.982 16.8056C325.982 16.9912 326.139 17.1472 326.324 17.1472H328.399V19.277C328.399 19.4625 328.555 19.6101 328.741 19.6101Z" fill="#767676"/>
<path d="M342.365 18.6863H342.877V19.1979C342.877 19.8855 343.221 20.2253 343.921 20.2253H347.138C347.834 20.2253 348.182 19.8855 348.182 19.1979V15.948C348.182 15.2604 347.834 14.9206 347.138 14.9206H346.626V14.409C346.626 13.7214 346.278 13.3817 345.582 13.3817H342.365C341.665 13.3817 341.322 13.7214 341.322 14.409V17.6589C341.322 18.3465 341.665 18.6863 342.365 18.6863ZM342.374 18.0969C342.079 18.0969 341.911 17.9372 341.911 17.6262V14.4418C341.911 14.1307 342.079 13.9711 342.374 13.9711H345.574C345.869 13.9711 346.037 14.1307 346.037 14.4418V14.9206H343.921C343.221 14.9206 342.877 15.2604 342.877 15.948V18.0969H342.374ZM343.929 19.6359C343.634 19.6359 343.466 19.4762 343.466 19.1652V15.9808C343.466 15.6697 343.634 15.51 343.929 15.51H347.13C347.424 15.51 347.592 15.6697 347.592 15.9808V19.1652C347.592 19.4762 347.424 19.6359 347.13 19.6359H343.929Z" fill="#767676"/>
<path d="M56.1966 19.7516H61.6359C62.3274 19.7516 62.6671 19.4119 62.6671 18.7325V14.8744C62.6671 14.195 62.3274 13.8553 61.6359 13.8553H56.1966C55.5091 13.8553 55.1653 14.195 55.1653 14.8744V18.7325C55.1653 19.4119 55.5091 19.7516 56.1966 19.7516ZM56.2047 19.1652C55.9135 19.1652 55.7477 19.0115 55.7477 18.7042V14.9027C55.7477 14.5994 55.9135 14.4417 56.2047 14.4417H57.612V19.1652H56.2047ZM61.6278 14.4417C61.919 14.4417 62.0848 14.5994 62.0848 14.9027V18.7042C62.0848 19.0115 61.919 19.1652 61.6278 19.1652H58.1822V14.4417H61.6278ZM57.0014 15.6145C57.1105 15.6145 57.2036 15.5174 57.2036 15.4123C57.2036 15.3071 57.1105 15.2182 57.0014 15.2182H56.3664C56.2613 15.2182 56.1683 15.3071 56.1683 15.4123C56.1683 15.5174 56.2613 15.6145 56.3664 15.6145H57.0014ZM57.0014 16.4233C57.1105 16.4233 57.2036 16.3303 57.2036 16.2211C57.2036 16.116 57.1105 16.027 57.0014 16.027H56.3664C56.2613 16.027 56.1683 16.116 56.1683 16.2211C56.1683 16.3303 56.2613 16.4233 56.3664 16.4233H57.0014ZM57.0014 17.2321C57.1105 17.2321 57.2036 17.1391 57.2036 17.034C57.2036 16.9288 57.1105 16.8398 57.0014 16.8398H56.3664C56.2613 16.8398 56.1683 16.9288 56.1683 17.034C56.1683 17.1391 56.2613 17.2321 56.3664 17.2321H57.0014Z" fill="#737373"/>
<path d="M28.6322 17.2202C28.6322 18.4142 27.6642 19.3821 26.4702 19.3821C25.2762 19.3821 24.3082 18.4142 24.3082 17.2202C24.3082 16.0262 25.2762 15.0582 26.4702 15.0582C27.6642 15.0582 28.6322 16.0262 28.6322 17.2202Z" fill="#FF5F57" stroke="#E14640" stroke-width="0.393084"/>
<path d="M36.4939 17.2202C36.4939 18.4142 35.5259 19.3821 34.3319 19.3821C33.1379 19.3821 32.1699 18.4142 32.1699 17.2202C32.1699 16.0262 33.1379 15.0582 34.3319 15.0582C35.5259 15.0582 36.4939 16.0262 36.4939 17.2202Z" fill="#FFBD2E" stroke="#DFA123" stroke-width="0.393084"/>
<path d="M44.3556 17.2202C44.3556 18.4142 43.3876 19.3821 42.1936 19.3821C40.9996 19.3821 40.0316 18.4142 40.0316 17.2202C40.0316 16.0262 40.9996 15.0582 42.1936 15.0582C43.3876 15.0582 44.3556 16.0262 44.3556 17.2202Z" fill="#28CA42" stroke="#1DAD2C" stroke-width="0.393084"/>
</g>
<path d="M355.75 26.8951H16.25V28.1786H355.75V26.8951Z" fill="#28363D" mask="url(#path-2-inside-1_14_3307)"/>
<g clip-path="url(#clip2_14_3307)">
<path d="M46.2151 44.0061V43.3629H47.8425V49.6981C47.8507 50.2535 47.7295 50.8036 47.4875 51.3044C47.2561 51.7749 46.8876 52.1644 46.4301 52.4228C45.9081 52.7063 45.3193 52.8464 44.7247 52.8282C43.9192 52.8663 43.1242 52.6337 42.4675 52.1674C41.8963 51.7245 41.5237 51.0748 41.4312 50.3595H43.0328C43.1154 50.6694 43.3076 50.9395 43.5747 51.1187C43.8835 51.3144 44.2455 51.4099 44.6111 51.3923C44.8237 51.4017 45.0358 51.3689 45.2356 51.2962C45.4353 51.2236 45.6187 51.1123 45.7751 50.9688C45.9345 50.7959 46.0563 50.5915 46.1325 50.3694C46.2086 50.1474 46.2379 49.9113 46.218 49.6776V48.4198C46.0598 48.8433 45.7704 49.2048 45.3914 49.4526C44.9755 49.7186 44.4886 49.8539 43.9948 49.8399C43.4798 49.8469 42.9725 49.711 42.5308 49.4473C42.0861 49.1732 41.7323 48.7754 41.512 48.3032C41.2695 47.749 41.1441 47.1515 41.1441 46.5469C41.1441 45.9423 41.2695 45.3447 41.512 44.7905C41.7317 44.3189 42.0861 43.9217 42.5308 43.6487C42.9725 43.384 43.4798 43.248 43.9948 43.2562C44.5367 43.282 45.7827 43.282 46.2157 44.0055L46.2151 44.0061ZM43.2713 45.2071C42.969 45.5984 42.8049 46.0782 42.8049 46.5721C42.8049 47.0659 42.969 47.5457 43.2713 47.9371C43.6017 48.2552 44.044 48.4321 44.5039 48.4297C44.9632 48.4274 45.4037 48.2458 45.7306 47.9242C46.044 47.5416 46.2157 47.0624 46.2157 46.5686C46.2157 46.0747 46.0446 45.5955 45.7306 45.2129C45.5736 45.0477 45.3832 44.9171 45.1717 44.8304C44.9608 44.7437 44.7329 44.7021 44.505 44.7091C44.2754 44.6992 44.0469 44.7384 43.8337 44.8245C43.621 44.9106 43.4289 45.0413 43.2713 45.2077V45.2071Z" fill="white"/>
<path d="M44.9192 55.7726C44.5297 55.7726 44.1412 55.7451 43.7558 55.69C41.0293 55.2952 38.8992 53.6062 38.3263 51.3876C38.1915 50.6307 38.1423 49.8615 38.1786 49.0941V46.0489H39.8113V49.107C39.7832 49.7338 39.8154 50.3612 39.9074 50.9816C40.314 52.5646 41.9186 53.7814 43.9889 54.0807C45.5777 54.3104 47.617 53.9747 48.6123 52.3531L48.8713 51.8493C49.6873 50.1914 51.4782 50.1755 52.4373 50.1656H53.033C53.2059 50.1404 53.374 50.0883 53.5304 50.0109C53.8216 49.8691 54.067 49.6483 54.2393 49.3747C54.4115 49.1011 54.5035 48.7848 54.5047 48.4614V46.0595H56.1374V48.4614C56.1362 49.2769 55.8374 50.0642 55.2967 50.6764C54.756 51.2886 54.0102 51.6835 53.1983 51.7878H52.4519C51.156 51.8006 50.6147 51.9946 50.3347 52.5622L50.0365 53.1563C49.0283 54.8118 47.1313 55.7726 44.9181 55.7726H44.9192Z" fill="white"/>
<path d="M50.8068 44.169V43.3324H49.1665V49.4403C49.1665 49.4644 49.1724 49.4878 49.1835 49.5089C49.1946 49.53 49.2116 49.5475 49.2321 49.5604C49.2526 49.5733 49.2755 49.5803 49.2995 49.5815C49.3235 49.5827 49.3475 49.578 49.3686 49.5669C49.791 49.37 50.2357 49.2236 50.6932 49.1304C50.7248 49.124 50.7535 49.107 50.7746 49.0818C50.7951 49.0572 50.8068 49.0256 50.8074 48.9933V46.6688C50.8074 45.5551 51.412 44.998 52.6218 44.998H53.0986V43.2498C52.596 43.2393 51.282 43.3324 50.8074 44.169H50.8068Z" fill="white"/>
<path d="M39.0257 45.3488L38.857 44.9798C38.7603 44.7712 38.591 44.6048 38.3801 44.5123L38.007 44.3547L38.3749 44.1865C38.5852 44.091 38.7527 43.9206 38.8441 43.7085L39.0046 43.3365L39.1734 43.7032C39.2683 43.9135 39.4393 44.0805 39.6526 44.1707L40.0234 44.3306L39.6555 44.4988C39.4452 44.5943 39.2776 44.7648 39.1862 44.9768L39.0257 45.3488Z" fill="#50FFAB"/>
<path d="M35.0766 46.3846V44.6956H36.6783V43.3166H32.0133V44.6956H33.4099V46.377C33.4099 48.097 34.1405 50.1035 36.6777 50.1035V48.7684C35.3819 48.776 35.0761 47.7795 35.0761 46.3846H35.0766Z" fill="white"/>
<path d="M55.3213 45.3488L55.1526 44.9798C55.0559 44.7706 54.8854 44.6042 54.6733 44.5123L54.3002 44.3547L54.6704 44.1865C54.8801 44.0899 55.0471 43.92 55.1397 43.7085L55.3002 43.3365L55.466 43.7032C55.5609 43.9135 55.7325 44.0805 55.9452 44.1707L56.3184 44.3306L55.9505 44.4988C55.7402 44.5943 55.5726 44.7648 55.4812 44.9768L55.3207 45.3488H55.3213Z" fill="#50FFAB"/>
<path d="M62.4251 46.9915C62.1843 46.7385 61.8832 46.551 61.5493 46.4467C61.1251 46.3202 60.6922 46.2253 60.2534 46.1626C59.8533 46.1052 59.4596 46.0073 59.0794 45.8708C58.9692 45.8363 58.8726 45.7677 58.8046 45.6746C58.7367 45.5814 58.7003 45.469 58.7009 45.3541C58.7033 45.2405 58.7378 45.1298 58.7999 45.0343C58.862 44.9388 58.9499 44.8626 59.053 44.8146C59.3758 44.6611 59.7326 44.5908 60.0894 44.6107C60.7566 44.6013 61.4145 44.7724 61.9916 45.1063L62.588 43.9311C62.2394 43.7343 61.8615 43.5937 61.4684 43.5152C61.0203 43.4127 60.5621 43.3611 60.1028 43.3605C59.35 43.3213 58.6043 43.5181 57.9698 43.9235C57.7238 44.0893 57.524 44.3143 57.3881 44.5773C57.2522 44.8403 57.1848 45.1333 57.1924 45.4291C57.1608 45.8333 57.2867 46.2341 57.5451 46.5475C57.7876 46.8111 58.0964 47.0056 58.4391 47.1105C58.8767 47.2393 59.3237 47.3342 59.7765 47.3946C60.1632 47.445 60.544 47.5317 60.9142 47.6529C61.0185 47.6834 61.1093 47.7473 61.1732 47.8346C61.237 47.9218 61.2698 48.0279 61.2669 48.1357C61.2669 48.6248 60.8029 48.8686 59.875 48.8668C59.0319 48.8855 58.1936 48.7391 57.408 48.4356V49.7268C58.1649 50.0092 58.9693 50.1433 59.7765 50.1217C60.7045 50.1217 61.438 49.9365 61.9769 49.5663C62.2277 49.4075 62.4333 49.1878 62.5745 48.9271C62.7157 48.6664 62.7871 48.3747 62.7824 48.0788C62.8094 47.684 62.6811 47.2938 62.4251 46.9915Z" fill="white"/>
</g>
<rect x="30.3691" y="71.8195" width="43.6408" height="7.05955" rx="3.52977" fill="#3C4A51"/>
<rect x="30.3691" y="92.9981" width="32.7306" height="7.05955" rx="3.52977" fill="#3C4A51"/>
<rect width="265.696" height="198.309" transform="translate(90.0543 27.5369)" fill="#374A54" fill-opacity="0.53"/>
<rect x="114.442" y="44.8649" width="143.116" height="93.6994" rx="14.7609" stroke="white" stroke-opacity="0.1" stroke-width="1.28355" stroke-dasharray="3.85 3.85"/>
<rect x="174.127" y="66.0435" width="23.104" height="23.104" rx="11.552" fill="white"/>
<path d="M185.679 73.8518V81.3392M181.935 77.5955H189.422" stroke="#1B2930" stroke-width="1.28355" stroke-linecap="round" stroke-linejoin="round"/>
<path d="M138.818 108.298C138.154 108.298 137.569 108.146 137.064 107.842C136.559 107.53 136.165 107.084 135.881 106.503C135.598 105.922 135.456 105.24 135.456 104.459C135.456 103.677 135.594 102.995 135.871 102.414C136.155 101.826 136.549 101.377 137.054 101.065C137.566 100.754 138.157 100.598 138.828 100.598C139.721 100.598 140.423 100.823 140.935 101.273C141.447 101.716 141.786 102.352 141.952 103.182L140.769 103.245C140.672 102.733 140.461 102.335 140.136 102.051C139.811 101.767 139.375 101.626 138.828 101.626C138.386 101.626 137.998 101.74 137.666 101.968C137.334 102.196 137.075 102.525 136.888 102.954C136.708 103.376 136.618 103.878 136.618 104.459C136.618 105.04 136.708 105.545 136.888 105.974C137.075 106.396 137.334 106.718 137.666 106.939C137.998 107.16 138.382 107.271 138.818 107.271C139.406 107.271 139.863 107.119 140.188 106.814C140.52 106.503 140.731 106.064 140.821 105.496L142.004 105.559C141.859 106.417 141.513 107.088 140.966 107.572C140.42 108.056 139.704 108.298 138.818 108.298ZM143.205 102.611H144.212L144.254 104.075L144.16 104.044C144.236 103.552 144.388 103.193 144.617 102.964C144.845 102.729 145.16 102.611 145.561 102.611H146.09V103.597H145.561C145.277 103.597 145.042 103.646 144.855 103.743C144.676 103.833 144.537 103.971 144.44 104.158C144.35 104.345 144.305 104.583 144.305 104.874V108.132H143.205V102.611ZM149.279 108.257C148.753 108.257 148.293 108.139 147.899 107.904C147.504 107.669 147.2 107.333 146.986 106.897C146.771 106.462 146.664 105.953 146.664 105.372C146.664 104.798 146.771 104.293 146.986 103.857C147.2 103.414 147.501 103.075 147.888 102.84C148.276 102.605 148.729 102.487 149.248 102.487C149.753 102.487 150.196 102.605 150.576 102.84C150.957 103.068 151.251 103.404 151.458 103.846C151.673 104.282 151.78 104.805 151.78 105.413V105.694H147.816C147.836 106.219 147.975 106.621 148.231 106.897C148.494 107.174 148.847 107.312 149.289 107.312C149.614 107.312 149.884 107.24 150.099 107.095C150.313 106.949 150.465 106.742 150.555 106.472L151.697 106.545C151.552 107.07 151.261 107.489 150.825 107.8C150.396 108.105 149.881 108.257 149.279 108.257ZM150.607 104.863C150.573 104.386 150.434 104.026 150.192 103.784C149.957 103.542 149.642 103.421 149.248 103.421C148.853 103.421 148.528 103.545 148.272 103.795C148.023 104.044 147.871 104.4 147.816 104.863H150.607ZM154.562 108.257C153.988 108.257 153.528 108.125 153.182 107.863C152.843 107.593 152.673 107.223 152.673 106.752C152.673 106.282 152.815 105.912 153.099 105.642C153.383 105.372 153.829 105.178 154.438 105.061L156.337 104.697C156.337 104.268 156.236 103.95 156.036 103.743C155.842 103.528 155.548 103.421 155.154 103.421C154.808 103.421 154.531 103.5 154.323 103.66C154.116 103.812 153.978 104.04 153.908 104.345L152.767 104.272C152.871 103.711 153.13 103.276 153.545 102.964C153.967 102.646 154.503 102.487 155.154 102.487C155.894 102.487 156.458 102.684 156.845 103.078C157.24 103.473 157.437 104.033 157.437 104.76V106.908C157.437 107.039 157.461 107.133 157.509 107.188C157.558 107.236 157.634 107.261 157.738 107.261H157.935V108.132C157.886 108.139 157.824 108.146 157.748 108.153C157.679 108.16 157.606 108.163 157.53 108.163C157.15 108.163 156.866 108.074 156.679 107.894C156.499 107.707 156.409 107.396 156.409 106.96L156.524 107.012C156.447 107.371 156.226 107.669 155.859 107.904C155.493 108.139 155.06 108.257 154.562 108.257ZM154.749 107.385C155.074 107.385 155.354 107.323 155.59 107.198C155.832 107.067 156.015 106.887 156.14 106.659C156.271 106.43 156.337 106.171 156.337 105.88V105.528L154.728 105.839C154.403 105.901 154.168 105.998 154.023 106.129C153.884 106.261 153.815 106.434 153.815 106.648C153.815 106.884 153.895 107.067 154.054 107.198C154.22 107.323 154.451 107.385 154.749 107.385ZM160.686 108.132C160.16 108.132 159.773 108.011 159.524 107.769C159.275 107.527 159.15 107.15 159.15 106.638V101.314H160.25V106.555C160.25 106.804 160.302 106.98 160.406 107.084C160.517 107.181 160.69 107.229 160.925 107.229H161.713V108.132H160.686ZM158.31 102.611H161.713V103.514H158.31V102.611ZM164.997 108.257C164.471 108.257 164.011 108.139 163.617 107.904C163.223 107.669 162.918 107.333 162.704 106.897C162.489 106.462 162.382 105.953 162.382 105.372C162.382 104.798 162.489 104.293 162.704 103.857C162.918 103.414 163.219 103.075 163.607 102.84C163.994 102.605 164.447 102.487 164.966 102.487C165.471 102.487 165.914 102.605 166.294 102.84C166.675 103.068 166.969 103.404 167.177 103.846C167.391 104.282 167.498 104.805 167.498 105.413V105.694H163.534C163.555 106.219 163.693 106.621 163.949 106.897C164.212 107.174 164.565 107.312 165.008 107.312C165.333 107.312 165.603 107.24 165.817 107.095C166.032 106.949 166.184 106.742 166.274 106.472L167.415 106.545C167.27 107.07 166.979 107.489 166.544 107.8C166.115 108.105 165.599 108.257 164.997 108.257ZM166.326 104.863C166.291 104.386 166.153 104.026 165.91 103.784C165.675 103.542 165.36 103.421 164.966 103.421C164.572 103.421 164.247 103.545 163.991 103.795C163.742 104.044 163.589 104.4 163.534 104.863H166.326ZM172.824 108.257C172.25 108.257 171.79 108.125 171.444 107.863C171.105 107.593 170.935 107.223 170.935 106.752C170.935 106.282 171.077 105.912 171.361 105.642C171.645 105.372 172.091 105.178 172.7 105.061L174.599 104.697C174.599 104.268 174.498 103.95 174.298 103.743C174.104 103.528 173.81 103.421 173.416 103.421C173.07 103.421 172.793 103.5 172.586 103.66C172.378 103.812 172.24 104.04 172.17 104.345L171.029 104.272C171.133 103.711 171.392 103.276 171.807 102.964C172.229 102.646 172.765 102.487 173.416 102.487C174.156 102.487 174.72 102.684 175.107 103.078C175.502 103.473 175.699 104.033 175.699 104.76V106.908C175.699 107.039 175.723 107.133 175.771 107.188C175.82 107.236 175.896 107.261 176 107.261H176.197V108.132C176.148 108.139 176.086 108.146 176.01 108.153C175.941 108.16 175.868 108.163 175.792 108.163C175.412 108.163 175.128 108.074 174.941 107.894C174.761 107.707 174.671 107.396 174.671 106.96L174.786 107.012C174.709 107.371 174.488 107.669 174.121 107.904C173.755 108.139 173.322 108.257 172.824 108.257ZM173.011 107.385C173.336 107.385 173.616 107.323 173.852 107.198C174.094 107.067 174.277 106.887 174.402 106.659C174.533 106.43 174.599 106.171 174.599 105.88V105.528L172.99 105.839C172.665 105.901 172.43 105.998 172.285 106.129C172.146 106.261 172.077 106.434 172.077 106.648C172.077 106.884 172.157 107.067 172.316 107.198C172.482 107.323 172.714 107.385 173.011 107.385ZM179.841 102.611H180.848L180.889 104.085L180.754 104.012C180.844 103.5 181.048 103.12 181.366 102.871C181.692 102.615 182.086 102.487 182.549 102.487C183.144 102.487 183.605 102.681 183.93 103.068C184.255 103.449 184.417 103.954 184.417 104.583V108.132H183.317V104.915C183.317 104.417 183.234 104.044 183.068 103.795C182.902 103.539 182.629 103.411 182.249 103.411C181.847 103.411 181.529 103.542 181.294 103.805C181.059 104.068 180.941 104.438 180.941 104.915V108.132H179.841V102.611ZM188.124 108.257C187.598 108.257 187.138 108.139 186.744 107.904C186.349 107.669 186.045 107.333 185.83 106.897C185.616 106.462 185.509 105.953 185.509 105.372C185.509 104.798 185.616 104.293 185.83 103.857C186.045 103.414 186.346 103.075 186.733 102.84C187.121 102.605 187.574 102.487 188.093 102.487C188.598 102.487 189.04 102.605 189.421 102.84C189.801 103.068 190.095 103.404 190.303 103.846C190.518 104.282 190.625 104.805 190.625 105.413V105.694H186.661C186.681 106.219 186.82 106.621 187.076 106.897C187.339 107.174 187.691 107.312 188.134 107.312C188.459 107.312 188.729 107.24 188.944 107.095C189.158 106.949 189.31 106.742 189.4 106.472L190.542 106.545C190.396 107.07 190.106 107.489 189.67 107.8C189.241 108.105 188.726 108.257 188.124 108.257ZM189.452 104.863C189.417 104.386 189.279 104.026 189.037 103.784C188.802 103.542 188.487 103.421 188.093 103.421C187.698 103.421 187.373 103.545 187.117 103.795C186.868 104.044 186.716 104.4 186.661 104.863H189.452ZM191.037 102.611H192.189L193.372 106.929L194.586 102.611H195.634L196.848 106.929L198.031 102.611H199.193L197.502 108.132H196.267L195.105 104.189L193.953 108.132H192.718L191.037 102.611ZM205.464 108.257C205.084 108.257 204.745 108.174 204.447 108.008C204.157 107.842 203.932 107.607 203.773 107.302L203.741 108.132H202.714V100.764H203.814V103.39C203.966 103.134 204.188 102.919 204.478 102.746C204.776 102.573 205.104 102.487 205.464 102.487C205.935 102.487 206.346 102.605 206.699 102.84C207.059 103.075 207.332 103.411 207.519 103.846C207.713 104.282 207.809 104.791 207.809 105.372C207.809 105.953 207.713 106.462 207.519 106.897C207.332 107.333 207.059 107.669 206.699 107.904C206.346 108.139 205.935 108.257 205.464 108.257ZM205.288 107.302C205.71 107.302 206.045 107.129 206.294 106.783C206.543 106.437 206.668 105.967 206.668 105.372C206.668 104.77 206.543 104.3 206.294 103.961C206.052 103.615 205.72 103.442 205.298 103.442C204.987 103.442 204.72 103.518 204.499 103.67C204.278 103.822 204.108 104.044 203.991 104.334C203.873 104.625 203.814 104.971 203.814 105.372C203.814 105.766 203.873 106.109 203.991 106.399C204.108 106.69 204.278 106.915 204.499 107.074C204.72 107.226 204.983 107.302 205.288 107.302ZM210.753 108.257C210.192 108.257 209.749 108.074 209.424 107.707C209.099 107.333 208.937 106.818 208.937 106.161V102.611H210.037V105.88C210.037 106.379 210.123 106.745 210.296 106.98C210.469 107.216 210.732 107.333 211.085 107.333C211.486 107.333 211.797 107.205 212.019 106.949C212.247 106.686 212.361 106.32 212.361 105.849V102.611H213.461V108.132H212.434L212.413 106.69L212.569 106.752C212.472 107.236 212.268 107.61 211.956 107.873C211.645 108.129 211.244 108.257 210.753 108.257ZM217.179 108.257C216.653 108.257 216.193 108.139 215.799 107.904C215.405 107.669 215.097 107.333 214.875 106.897C214.661 106.455 214.554 105.946 214.554 105.372C214.554 104.798 214.661 104.293 214.875 103.857C215.097 103.414 215.405 103.075 215.799 102.84C216.193 102.605 216.653 102.487 217.179 102.487C217.622 102.487 218.016 102.567 218.362 102.726C218.715 102.878 219.002 103.106 219.223 103.411C219.445 103.708 219.583 104.068 219.639 104.49L218.497 104.552C218.442 104.199 218.296 103.926 218.061 103.732C217.826 103.539 217.532 103.442 217.179 103.442C216.716 103.442 216.352 103.611 216.089 103.95C215.827 104.289 215.695 104.763 215.695 105.372C215.695 105.981 215.827 106.455 216.089 106.794C216.352 107.133 216.716 107.302 217.179 107.302C217.532 107.302 217.826 107.202 218.061 107.001C218.296 106.801 218.442 106.503 218.497 106.109L219.639 106.171C219.583 106.593 219.445 106.96 219.223 107.271C219.009 107.582 218.725 107.824 218.372 107.997C218.02 108.17 217.622 108.257 217.179 108.257ZM220.713 100.764H221.813V105.341L224.293 102.611H225.683L223.525 104.936L225.766 108.132H224.5L222.788 105.621L221.813 106.659V108.132H220.713V100.764ZM228.742 108.257C228.216 108.257 227.756 108.139 227.362 107.904C226.968 107.669 226.663 107.333 226.449 106.897C226.234 106.462 226.127 105.953 226.127 105.372C226.127 104.798 226.234 104.293 226.449 103.857C226.663 103.414 226.964 103.075 227.351 102.84C227.739 102.605 228.192 102.487 228.711 102.487C229.216 102.487 229.659 102.605 230.039 102.84C230.42 103.068 230.714 103.404 230.921 103.846C231.136 104.282 231.243 104.805 231.243 105.413V105.694H227.279C227.3 106.219 227.438 106.621 227.694 106.897C227.957 107.174 228.31 107.312 228.752 107.312C229.078 107.312 229.347 107.24 229.562 107.095C229.776 106.949 229.929 106.742 230.019 106.472L231.16 106.545C231.015 107.07 230.724 107.489 230.288 107.8C229.859 108.105 229.344 108.257 228.742 108.257ZM230.07 104.863C230.036 104.386 229.897 104.026 229.655 103.784C229.42 103.542 229.105 103.421 228.711 103.421C228.317 103.421 227.991 103.545 227.735 103.795C227.486 104.044 227.334 104.4 227.279 104.863H230.07ZM234.292 108.132C233.766 108.132 233.378 108.011 233.129 107.769C232.88 107.527 232.756 107.15 232.756 106.638V101.314H233.856V106.555C233.856 106.804 233.908 106.98 234.011 107.084C234.122 107.181 234.295 107.229 234.53 107.229H235.319V108.132H234.292ZM231.915 102.611H235.319V103.514H231.915V102.611Z" fill="white"/>
</g>
</g>
<defs>
<filter id="filter0_d_14_3307" x="0.505689" y="0.702276" width="371.489" height="248.489" filterUnits="userSpaceOnUse" color-interpolation-filters="sRGB">
<feFlood flood-opacity="0" result="BackgroundImageFix"/>
<feColorMatrix in="SourceAlpha" type="matrix" values="0 0 0 0 0 0 0 0 0 0 0 0 0 0 0 0 0 0 127 0" result="hardAlpha"/>
<feMorphology radius="9.44659" operator="erode" in="SourceAlpha" result="effect1_dropShadow_14_3307"/>
<feOffset dy="9.44659"/>
<feGaussianBlur stdDeviation="12.5954"/>
<feComposite in2="hardAlpha" operator="out"/>
<feColorMatrix type="matrix" values="0 0 0 0 0 0 0 0 0 0.0666667 0 0 0 0 0.2 0 0 0 0.25 0"/>
<feBlend mode="normal" in2="BackgroundImageFix" result="effect1_dropShadow_14_3307"/>
<feBlend mode="normal" in="SourceGraphic" in2="effect1_dropShadow_14_3307" result="shape"/>
</filter>
<clipPath id="clip0_14_3307">
<rect x="16.25" y="7" width="340" height="217" rx="9.29" fill="white"/>
</clipPath>
<clipPath id="clip1_14_3307">
<path d="M16.25 7H355.75V27.5369H16.25V7Z" fill="white"/>
</clipPath>
<clipPath id="clip2_14_3307">
<rect width="30.8149" height="12.5954" fill="white" transform="translate(31.9922 43.2129)"/>
</clipPath>
</defs>
</svg>
