<svg width="40" height="40" viewBox="0 0 40 40" fill="none" xmlns="http://www.w3.org/2000/svg">
<path fill-rule="evenodd" clip-rule="evenodd" d="M19.7014 17.5293C19.8985 17.4902 20.1017 17.4902 20.2988 17.5293C20.5241 17.574 20.7294 17.6842 20.9651 17.8107C20.981 17.8193 20.997 17.8279 21.0132 17.8365L28.4132 21.7991C28.4307 21.8086 28.4482 21.8179 28.4654 21.8271C28.7129 21.9592 28.9311 22.0757 29.0969 22.2491C29.2427 22.4016 29.3541 22.5835 29.4226 22.7832C29.5009 23.0117 29.5006 23.258 29.5002 23.5295C29.5001 23.5489 29.5001 23.5684 29.5001 23.5881V31.4119C29.5001 31.4316 29.5001 31.4511 29.5002 31.4705C29.5006 31.742 29.5009 31.9883 29.4226 32.2168C29.3541 32.4165 29.2427 32.5984 29.0969 32.7509C28.9311 32.9243 28.7129 33.0408 28.4654 33.1729C28.4482 33.1821 28.4307 33.1914 28.4132 33.2009L21.0132 37.1635C20.997 37.1721 20.981 37.1807 20.9651 37.1893C20.7294 37.3158 20.5241 37.426 20.2988 37.4707C20.1017 37.5098 19.8985 37.5098 19.7014 37.4707C19.4761 37.426 19.2708 37.3158 19.0352 37.1893C19.0193 37.1807 19.0032 37.1721 18.9871 37.1635L11.5871 33.2009C11.5695 33.1914 11.5521 33.1821 11.5348 33.1729C11.2873 33.0408 11.0691 32.9243 10.9033 32.7509C10.7575 32.5984 10.6461 32.4165 10.5776 32.2168C10.4993 31.9883 10.4997 31.742 10.5001 31.4705C10.5001 31.4511 10.5001 31.4316 10.5001 31.4119V23.5881C10.5001 23.5684 10.5001 23.5489 10.5001 23.5295C10.4997 23.258 10.4993 23.0117 10.5776 22.7833C10.6461 22.5835 10.7575 22.4016 10.9033 22.2491C11.0691 22.0757 11.2873 21.9592 11.5348 21.8271C11.5521 21.8179 11.5695 21.8086 11.5871 21.7992L18.9871 17.8365C19.0032 17.8279 19.0193 17.8193 19.0352 17.8107C19.2708 17.6842 19.4761 17.574 19.7014 17.5293ZM28.5 23.5155L20.5001 27.7994L20.5001 36.3038C20.5133 36.2968 20.5269 36.2895 20.5411 36.2819L27.9411 32.3193C28.2712 32.1425 28.3333 32.1025 28.3741 32.0599C28.4212 32.0106 28.4558 31.9533 28.4766 31.8925C28.4937 31.8427 28.5001 31.7777 28.5001 31.4119V23.5881C28.5001 23.5624 28.5001 23.5383 28.5 23.5155ZM19.5001 36.3038L19.5001 27.7994L11.5002 23.5156C11.5001 23.5383 11.5001 23.5625 11.5001 23.5881V31.4119C11.5001 31.7777 11.5065 31.8427 11.5236 31.8925C11.5444 31.9533 11.579 32.0106 11.6261 32.0599C11.6669 32.1025 11.729 32.1425 12.0591 32.3193L19.4591 36.2819C19.4733 36.2895 19.4869 36.2968 19.5001 36.3038Z" fill="url(#paint0_radial_1515_2323)"/>
<path fill-rule="evenodd" clip-rule="evenodd" d="M11.2988 3.52931C11.1017 3.49023 10.8985 3.49023 10.7014 3.52931C10.4761 3.57397 10.2708 3.68419 10.0352 3.81074L2.53478 7.82708C2.28734 7.95918 2.0691 8.07568 1.90334 8.24905C1.75754 8.40156 1.64608 8.58351 1.57761 8.78325C1.4993 9.01172 1.49966 9.258 1.50006 9.52947V17.4705C1.49966 17.742 1.4993 17.9883 1.57761 18.2168C1.64608 18.4165 1.75754 18.5984 1.90334 18.7509C2.0691 18.9243 2.28734 19.0408 2.53478 19.1729L10.0352 23.1893C10.1992 23.2773 10.3485 23.3575 10.5001 23.4132C10.4999 23.4514 10.5 23.4902 10.5001 23.5295V31.4705C10.4997 31.742 10.4993 31.9883 10.5776 32.2168C10.6461 32.4165 10.7575 32.5984 10.9033 32.7509C11.0691 32.9243 11.2873 33.0408 11.5348 33.1729L19.0352 37.1893C19.2708 37.3158 19.4761 37.426 19.7014 37.4707C19.8985 37.5098 20.1017 37.5098 20.2988 37.4707C20.5241 37.426 20.7294 37.3158 20.9651 37.1893L28.4654 33.1729C28.7129 33.0408 28.9311 32.9243 29.0969 32.7509C29.2427 32.5984 29.3541 32.4165 29.4226 32.2168C29.5009 31.9883 29.5006 31.742 29.5002 31.4706V23.5295C29.5002 23.4902 29.5003 23.4514 29.5001 23.4132C29.6517 23.3575 29.801 23.2773 29.9651 23.1893L37.4654 19.1729C37.7129 19.0408 37.9311 18.9243 38.0969 18.7509C38.2427 18.5984 38.3541 18.4165 38.4226 18.2168C38.5009 17.9883 38.5006 17.742 38.5002 17.4705V9.52947C38.5006 9.258 38.5009 9.01171 38.4226 8.78325C38.3541 8.58351 38.2427 8.40156 38.0969 8.24905C37.9311 8.07568 37.7129 7.95917 37.4654 7.82708L29.9651 3.81074C29.7294 3.6842 29.5241 3.57397 29.2988 3.52931C29.1017 3.49023 28.8985 3.49023 28.7014 3.52931C28.4761 3.57397 28.2708 3.68419 28.0352 3.81074L20.5348 7.82708C20.3329 7.93485 20.1505 8.03224 20.0001 8.15861C19.8498 8.03224 19.6673 7.93485 19.4654 7.82708L11.9651 3.81074C11.7294 3.6842 11.5241 3.57397 11.2988 3.52931ZM11.5001 21.8456C11.5116 21.8395 11.5232 21.8333 11.5348 21.8271L19.0352 17.8107C19.1992 17.7227 19.3485 17.6425 19.5001 17.5868L19.5001 9.52947L19.5 9.51554L11.5001 13.7994L11.5001 21.8456ZM20.5001 17.5868C20.6517 17.6425 20.801 17.7227 20.9651 17.8107L28.5001 21.8456L28.5001 13.7994L20.5002 9.51558L20.5002 9.52945L20.5001 17.5868ZM10.5001 13.7994L10.5001 22.3038L3.05912 18.3193C2.72903 18.1425 2.66692 18.1025 2.62615 18.0599C2.579 18.0106 2.54444 17.9533 2.52358 17.8925C2.50652 17.8427 2.50011 17.7777 2.50011 17.4119V9.58806L2.50021 9.51558L10.5001 13.7994ZM11.0001 12.9328L3.0593 8.68062L10.4591 4.71811C10.7701 4.55157 10.836 4.52208 10.8959 4.51022C10.9646 4.49659 11.0356 4.49659 11.1043 4.51022C11.1642 4.52208 11.2301 4.55157 11.5411 4.71811L18.9409 8.6806L11.0001 12.9328ZM21.0593 8.68062L29.0001 12.9328L36.9409 8.6806L29.5411 4.71811C29.2301 4.55157 29.1642 4.52208 29.1043 4.51022C29.0356 4.49659 28.9646 4.49659 28.8959 4.51022C28.836 4.52208 28.7701 4.55157 28.4591 4.71811L21.0593 8.68062ZM37.5 9.51554L29.5001 13.7994L29.5001 22.3038L36.9411 18.3193C37.2712 18.1425 37.3333 18.1025 37.3741 18.0599C37.4212 18.0106 37.4558 17.9533 37.4766 17.8925C37.4937 17.8427 37.5001 17.7777 37.5001 17.4119V9.58806L37.5 9.51554ZM20.5411 18.7181C20.2301 18.5516 20.1642 18.5221 20.1043 18.5102C20.0356 18.4966 19.9646 18.4966 19.8959 18.5102C19.836 18.5221 19.7701 18.5516 19.4591 18.7181L12.0593 22.6806L20.0001 26.9328L27.9409 22.6806L20.5411 18.7181ZM28.5 23.5155L20.5001 27.7994L20.5001 36.3038L27.9411 32.3193C28.2712 32.1425 28.3333 32.1025 28.3741 32.0599C28.4212 32.0106 28.4558 31.9533 28.4766 31.8925C28.4937 31.8427 28.5001 31.7777 28.5001 31.4119V23.5881L28.5 23.5155ZM19.5001 36.3038L19.5001 27.7994L11.5002 23.5156L11.5001 23.5881V31.4119C11.5001 31.7777 11.5065 31.8427 11.5236 31.8925C11.5444 31.9533 11.579 32.0106 11.6261 32.0599C11.6669 32.1025 11.729 32.1425 12.0591 32.3193L19.5001 36.3038Z" fill="url(#paint1_radial_1515_2323)"/>
<defs>
<radialGradient id="paint0_radial_1515_2323" cx="0" cy="0" r="1" gradientUnits="userSpaceOnUse" gradientTransform="translate(20 19.5) rotate(90) scale(17.5 17.3015)">
<stop stop-color="#D4FFEB"/>
<stop offset="0.265625" stop-color="#7EFFC4"/>
<stop offset="0.708333" stop-color="#71DCFF"/>
<stop offset="1" stop-color="#858AFF"/>
</radialGradient>
<radialGradient id="paint1_radial_1515_2323" cx="0" cy="0" r="1" gradientUnits="userSpaceOnUse" gradientTransform="translate(11.5422 11.2709) rotate(37.8104) scale(30.1049 29.5797)">
<stop stop-color="white"/>
<stop offset="1" stop-color="white" stop-opacity="0.1"/>
</radialGradient>
</defs>
</svg>
