<svg width="40" height="40" viewBox="0 0 40 40" fill="none" xmlns="http://www.w3.org/2000/svg">
<path d="M20.0576 25L19.2241 23.1753C18.7482 22.1311 17.9028 21.3019 16.849 20.8483L15 20.0515L16.8357 19.2165C17.8747 18.7408 18.6994 17.8925 19.1457 16.838L19.9424 15L20.7759 16.8247C21.2518 17.8689 22.0972 18.6981 23.151 19.1517L25 19.9485L23.1643 20.7835C22.1283 21.2592 21.3051 22.1016 20.8543 23.1487L20.0576 25Z" fill="url(#paint0_radial_1515_2306)"/>
<path fill-rule="evenodd" clip-rule="evenodd" d="M25.2927 31.9293C25.8552 30.8043 26.3413 29.5085 26.7292 28.08C24.6578 28.5116 22.385 28.75 20.0007 28.75C17.6159 28.75 15.3425 28.5115 13.2707 28.0796C13.6586 29.5083 14.1447 30.8042 14.7073 31.9293C16.1979 34.9108 18.0669 36.423 19.8573 36.4994C19.9048 36.4998 19.9524 36.5 20 36.5C20.0476 36.5 20.0952 36.4998 20.1427 36.4994C21.9331 36.423 23.8021 34.9108 25.2927 31.9293ZM19.8295 37.4992C19.8862 37.5014 19.9431 37.5024 20 37.5024C20.0569 37.5024 20.1138 37.5014 20.1705 37.4992C29.7062 37.4082 37.418 29.6905 37.4994 20.1525C37.5011 20.1017 37.502 20.0509 37.502 20C37.502 19.9491 37.5011 19.8983 37.4994 19.8475C37.4175 10.2527 29.6141 2.5 20 2.5C10.3605 2.5 2.54127 10.2938 2.50016 19.9237C2.49973 19.9491 2.49951 19.9745 2.49951 20C2.49951 20.0255 2.49973 20.0509 2.50016 20.0763C2.54103 29.6494 10.2684 37.408 19.8295 37.4992ZM16.6273 36.155C10.2199 34.8242 5.17399 29.7774 3.84435 23.3696C5.46308 25.3074 8.43586 26.892 12.1716 27.8278C13.1068 31.5627 14.6904 34.5353 16.6273 36.155ZM3.50012 20.0638C3.53479 21.8781 5.04736 23.7802 8.07269 25.2927C9.19712 25.8549 10.4921 26.3408 11.9198 26.7286C11.4883 24.6575 11.25 22.385 11.25 20.0012C11.25 17.6164 11.4885 15.343 11.9203 13.2712C10.4924 13.6591 9.19727 14.145 8.07269 14.7073C5.04736 16.2198 3.53479 18.1219 3.50012 19.9362C3.50004 19.9575 3.5 19.9787 3.5 20C3.5 20.0213 3.50004 20.0425 3.50012 20.0638ZM3.84435 16.6304C5.46317 14.6925 8.43621 13.1078 12.1722 12.1721C13.1081 8.43585 14.693 5.46277 16.6312 3.84419C10.2219 5.1738 5.17426 10.2213 3.84435 16.6304ZM20 3.5C18.1666 3.5 16.2376 5.01236 14.7073 8.07318C14.1451 9.19759 13.6592 10.4925 13.2714 11.9202C15.343 11.4884 17.6162 11.25 20.0007 11.25C22.3847 11.25 24.6573 11.4883 26.7285 11.9199C26.3407 10.4924 25.8549 9.19751 25.2927 8.07318C23.7624 5.01236 21.8334 3.5 20 3.5ZM23.3688 3.84419C25.3069 5.46271 26.8918 8.43564 27.8277 12.1717C31.5629 13.107 34.5357 14.6909 36.1552 16.628C34.8245 10.22 29.7773 5.17364 23.3688 3.84419ZM36.4995 19.8724C36.431 18.0774 34.9187 16.2021 31.9288 14.7073C30.8038 14.1448 29.5081 13.6587 28.0796 13.2708C28.5115 15.3427 28.75 17.6163 28.75 20.0012C28.75 22.3852 28.5117 24.6578 28.0801 26.729C29.5084 26.3411 30.8039 25.8551 31.9288 25.2927C34.9187 23.7979 36.431 21.9226 36.4995 20.1276C36.4998 20.0851 36.5 20.0426 36.5 20C36.5 19.9574 36.4998 19.9149 36.4995 19.8724ZM36.1552 23.372C34.5358 25.309 31.5633 26.8928 27.8283 27.8282C26.8931 31.5629 25.3095 34.5354 23.3727 36.155C29.7793 34.8243 34.8248 29.7787 36.1552 23.372ZM27.75 20.0012C27.75 17.4912 27.4784 15.1217 26.9977 13.0017C24.8783 12.5214 22.5098 12.25 20.0007 12.25C17.4911 12.25 15.122 12.5215 13.0022 13.0021C12.5216 15.122 12.25 17.4913 12.25 20.0012C12.25 22.5101 12.5214 24.8785 13.0017 26.9978C15.1215 27.4784 17.4908 27.75 20.0007 27.75C22.51 27.75 24.8788 27.4786 26.9983 26.9981C27.4786 24.8788 27.75 22.5103 27.75 20.0012Z" fill="url(#paint1_radial_1515_2306)"/>
<path fill-rule="evenodd" clip-rule="evenodd" d="M25.2927 31.9293C25.8552 30.8043 26.3413 29.5085 26.7292 28.08C24.6578 28.5116 22.385 28.75 20.0007 28.75C17.6159 28.75 15.3425 28.5115 13.2707 28.0796C13.6586 29.5083 14.1447 30.8042 14.7073 31.9293C16.1979 34.9108 18.0669 36.423 19.8573 36.4994C19.9048 36.4998 19.9524 36.5 20 36.5C20.0476 36.5 20.0952 36.4998 20.1427 36.4994C21.9331 36.423 23.8021 34.9108 25.2927 31.9293ZM19.8295 37.4992C19.8862 37.5014 19.9431 37.5024 20 37.5024C20.0569 37.5024 20.1138 37.5014 20.1705 37.4992C29.7062 37.4082 37.418 29.6905 37.4994 20.1525C37.5011 20.1017 37.502 20.0509 37.502 20C37.502 19.9491 37.5011 19.8983 37.4994 19.8475C37.4175 10.2527 29.6141 2.5 20 2.5C10.3605 2.5 2.54127 10.2938 2.50016 19.9237C2.49973 19.9491 2.49951 19.9745 2.49951 20C2.49951 20.0255 2.49973 20.0509 2.50016 20.0763C2.54103 29.6494 10.2684 37.408 19.8295 37.4992ZM16.6273 36.155C10.2199 34.8242 5.17399 29.7774 3.84435 23.3696C5.46308 25.3074 8.43586 26.892 12.1716 27.8278C13.1068 31.5627 14.6904 34.5353 16.6273 36.155ZM3.50012 20.0638C3.53479 21.8781 5.04736 23.7802 8.07269 25.2927C9.19712 25.8549 10.4921 26.3408 11.9198 26.7286C11.4883 24.6575 11.25 22.385 11.25 20.0012C11.25 17.6164 11.4885 15.343 11.9203 13.2712C10.4924 13.6591 9.19727 14.145 8.07269 14.7073C5.04736 16.2198 3.53479 18.1219 3.50012 19.9362C3.50004 19.9575 3.5 19.9787 3.5 20C3.5 20.0213 3.50004 20.0425 3.50012 20.0638ZM3.84435 16.6304C5.46317 14.6925 8.43621 13.1078 12.1722 12.1721C13.1081 8.43585 14.693 5.46277 16.6312 3.84419C10.2219 5.1738 5.17426 10.2213 3.84435 16.6304ZM20 3.5C18.1666 3.5 16.2376 5.01236 14.7073 8.07318C14.1451 9.19759 13.6592 10.4925 13.2714 11.9202C15.343 11.4884 17.6162 11.25 20.0007 11.25C22.3847 11.25 24.6573 11.4883 26.7285 11.9199C26.3407 10.4924 25.8549 9.19751 25.2927 8.07318C23.7624 5.01236 21.8334 3.5 20 3.5ZM23.3688 3.84419C25.3069 5.46271 26.8918 8.43564 27.8277 12.1717C31.5629 13.107 34.5357 14.6909 36.1552 16.628C34.8245 10.22 29.7773 5.17364 23.3688 3.84419ZM36.4995 19.8724C36.431 18.0774 34.9187 16.2021 31.9288 14.7073C30.8038 14.1448 29.5081 13.6587 28.0796 13.2708C28.5115 15.3427 28.75 17.6163 28.75 20.0012C28.75 22.3852 28.5117 24.6578 28.0801 26.729C29.5084 26.3411 30.8039 25.8551 31.9288 25.2927C34.9187 23.7979 36.431 21.9226 36.4995 20.1276C36.4998 20.0851 36.5 20.0426 36.5 20C36.5 19.9574 36.4998 19.9149 36.4995 19.8724ZM36.1552 23.372C34.5358 25.309 31.5633 26.8928 27.8283 27.8282C26.8931 31.5629 25.3095 34.5354 23.3727 36.155C29.7793 34.8243 34.8248 29.7787 36.1552 23.372ZM27.75 20.0012C27.75 17.4912 27.4784 15.1217 26.9977 13.0017C24.8783 12.5214 22.5098 12.25 20.0007 12.25C17.4911 12.25 15.122 12.5215 13.0022 13.0021C12.5216 15.122 12.25 17.4913 12.25 20.0012C12.25 22.5101 12.5214 24.8785 13.0017 26.9978C15.1215 27.4784 17.4908 27.75 20.0007 27.75C22.51 27.75 24.8788 27.4786 26.9983 26.9981C27.4786 24.8788 27.75 22.5103 27.75 20.0012Z" fill="black" fill-opacity="0.16"/>
<defs>
<radialGradient id="paint0_radial_1515_2306" cx="0" cy="0" r="1" gradientUnits="userSpaceOnUse" gradientTransform="translate(18 18) rotate(50.7106) scale(7.10633 17.8987)">
<stop stop-color="#7EFFC4"/>
<stop offset="0.458333" stop-color="#71DCFF"/>
<stop offset="1" stop-color="#858AFF"/>
</radialGradient>
<radialGradient id="paint1_radial_1515_2306" cx="0" cy="0" r="1" gradientUnits="userSpaceOnUse" gradientTransform="translate(17.5 17) rotate(32.5741) scale(21.36)">
<stop stop-color="#DAFFEE"/>
<stop offset="0.0001" stop-color="#DAFFEE"/>
<stop offset="0.65625" stop-color="#CFF3FF"/>
<stop offset="1" stop-color="#DADBFF"/>
</radialGradient>
</defs>
</svg>
