<svg width="40" height="40" viewBox="0 0 40 40" fill="none" xmlns="http://www.w3.org/2000/svg">
<path d="M29 8.7998C30.769 8.7998 32.2 10.3125 32.2002 12.1426V27.8574C32.2001 29.6875 30.769 31.2002 29 31.2002H11C9.23097 31.2002 7.79995 29.6875 7.7998 27.8574V12.1426C7.79995 10.3125 9.23097 8.7998 11 8.7998H29ZM21.5 23.3428C20.7943 23.3428 20.2004 23.9514 20.2002 24.7139C20.2002 25.4766 20.7941 26.0859 21.5 26.0859H26C26.7059 26.0859 27.2998 25.4766 27.2998 24.7139C27.2996 23.9514 26.7057 23.3428 26 23.3428H21.5ZM14.9053 14.3076C14.4168 13.7962 13.6432 13.7792 13.1348 14.2549V14.2656L13.0801 14.3242C12.5689 14.8598 12.5689 15.7281 13.0801 16.2637L16.5146 19.8623L16.6465 20L16.5146 20.1377L13.0801 23.7363C12.5979 24.2724 12.5982 25.1109 13.0811 25.6465L13.1777 25.7402C13.6733 26.1744 14.417 26.1583 14.9053 25.6758L19.4053 20.9619L19.4951 20.8574C19.8863 20.3548 19.8863 19.6296 19.4951 19.127L19.4053 19.0225L14.9053 14.3076Z" fill="black" stroke="black" stroke-width="0.4"/>
</svg>
