<svg width="40" height="40" viewBox="0 0 40 40" fill="none" xmlns="http://www.w3.org/2000/svg">
<g id="Brand Icons">
<path id="Vector" d="M16.5147 20.1381L16.6465 20L16.5147 19.8619L13.0797 16.2633C12.5684 15.7278 12.5684 14.8594 13.0797 14.3238L13.135 14.2658V14.2534C13.6435 13.7785 14.4172 13.7967 14.9053 14.3081L19.4053 19.0224C19.9166 19.558 19.9166 20.4263 19.4053 20.9619L14.9071 25.6743C14.3865 26.1906 13.5739 26.175 13.0824 25.6476C12.5978 25.1116 12.5975 24.2711 13.0816 23.7347L16.5147 20.1381ZM11 8.8C9.23088 8.8 7.8 10.3127 7.8 12.1429V27.8571C7.8 29.6873 9.23088 31.2 11 31.2H29C30.7691 31.2 32.2 29.6873 32.2 27.8571V12.1429C32.2 10.3127 30.7691 8.8 29 8.8H11ZM20.2 24.7143C20.2 23.9516 20.7941 23.3429 21.5 23.3429H26C26.7059 23.3429 27.3 23.9516 27.3 24.7143C27.3 25.477 26.7059 26.0857 26 26.0857H21.5C20.7941 26.0857 20.2 25.477 20.2 24.7143Z" fill="white" stroke="white" stroke-width="0.4"/>
</g>
</svg>
