<svg width="40" height="40" viewBox="0 0 40 40" fill="none" xmlns="http://www.w3.org/2000/svg">
<g clip-path="url(#clip0_1515_2423)">
<path d="M1.61773 24.0264C2.5374 24.0264 3.21699 24.5842 3.21699 25.5224C3.21699 26.4607 2.5374 27 1.61773 27C0.698061 27 0 26.4422 0 25.5224C0 24.6026 0.661127 24.0264 1.61773 24.0264Z" fill="white"/>
<path d="M8.13293 13L14.9843 23.0438C14.9843 23.0438 14.9436 21.4259 14.9436 19.7894V13H17.481V26.7821H14.8661L7.87439 16.6164C7.87439 16.6164 7.91502 18.3747 7.91502 20.0111V26.7821H5.37762V13H8.13293Z" fill="white"/>
<path d="M28.7682 13V15.1573H22.8587V18.5741H28.4284V20.7129H22.8587V24.6285H28.9271V26.7858H20.2585V13H28.7645H28.7682Z" fill="white"/>
<path d="M29.8541 15.0945V13H40V15.0945H36.2253V26.7784H33.651V15.0945H29.8578H29.8541Z" fill="white"/>
</g>
<defs>
<clipPath id="clip0_1515_2423">
<rect width="40" height="14" fill="white" transform="translate(0 13)"/>
</clipPath>
</defs>
</svg>
