<svg width="41" height="14" viewBox="0 0 41 14" fill="none" xmlns="http://www.w3.org/2000/svg">
<g id="Layer_1" clip-path="url(#clip0_38_251)">
<path id="Vector" d="M2.28435 11.0264C3.20402 11.0264 3.88362 11.5842 3.88362 12.5224C3.88362 13.4607 3.20402 14 2.28435 14C1.36469 14 0.666626 13.4422 0.666626 12.5224C0.666626 11.6026 1.32775 11.0264 2.28435 11.0264Z" fill="white"/>
<path id="Vector_2" d="M8.79956 0L15.6509 10.0438C15.6509 10.0438 15.6103 8.42586 15.6103 6.78944V0H18.1477V13.7821H15.5327L8.54102 3.61636C8.54102 3.61636 8.58165 5.37467 8.58165 7.01108V13.7821H6.04425V0H8.79956Z" fill="white"/>
<path id="Vector_3" d="M29.4349 0V2.15726H23.5254V5.57414H29.0951V7.71293H23.5254V11.6285H29.5937V13.7858H20.9252V0H29.4312H29.4349Z" fill="white"/>
<path id="Vector_4" d="M30.5208 2.09446V0H40.6666V2.09446H36.8919V13.7784H34.3176V2.09446H30.5244H30.5208Z" fill="white"/>
</g>
<defs>
<clipPath id="clip0_38_251">
<rect width="40" height="14" fill="white" transform="translate(0.666626)"/>
</clipPath>
</defs>
</svg>
