<svg width="40" height="40" viewBox="0 0 40 40" fill="none" xmlns="http://www.w3.org/2000/svg">
<g clip-path="url(#clip0_1515_2361)">
<path d="M24.3815 13.9859C25.0934 15.5014 25.7042 16.8096 26.0938 17.8858C26.695 19.5247 27.0942 21.2327 27.2866 22.9704C27.301 23.1382 27.4453 23.2616 27.6136 23.2468C27.6713 23.2419 27.7242 23.2172 27.7675 23.1826C28.9603 22.22 29.9367 21.0007 30.6196 19.6086C30.6966 19.4556 30.6966 19.268 30.6196 19.1149C29.8501 17.7228 28.8353 16.4887 27.628 15.4718C26.6228 14.598 25.2232 13.4182 23.8525 11.9915C23.7851 11.9175 23.6745 11.9126 23.6024 11.9817C23.5447 12.036 23.5302 12.1248 23.5639 12.1989L24.3815 13.9859Z" fill="black"/>
<g opacity="0.5">
<path d="M23.5639 31.1305C22.0873 30.4245 20.707 29.5212 19.4565 28.445C19.3122 28.3216 19.1246 28.2525 18.937 28.2623H17.5807C13.9543 28.2623 10.7896 27.4527 8.39436 25.9027L8.18274 25.7595C8.29817 26.574 8.47613 27.3787 8.71661 28.1636C8.93304 28.9485 9.23124 29.7087 9.59677 30.4344C9.59677 30.4443 9.59677 30.4591 9.59677 30.469C10.929 33.0755 13.1366 35.1044 15.806 36.1805C16.1763 36.3286 16.5611 36.4323 16.9555 36.4915C18.8216 36.4915 20.2405 35.6425 21.8084 34.4676C22.5972 33.8406 23.2849 33.0853 23.8429 32.2362C24.0785 31.9055 24.0064 31.4415 23.6841 31.2045C23.6457 31.1749 23.6072 31.1551 23.5639 31.1305Z" fill="black"/>
</g>
<path d="M31.115 21.5734C30.1723 22.9852 28.9892 24.2144 27.6184 25.1918C27.4741 25.2955 27.3876 25.4633 27.3779 25.6411C27.325 27.1319 27.0557 28.6079 26.5747 30.0148C26.4593 30.3061 26.594 30.6418 26.8777 30.7602C26.9114 30.775 26.9499 30.7849 26.9884 30.7948C27.9695 31.0416 28.9796 31.1502 29.9896 31.1206C30.1916 31.1206 30.3743 31.0021 30.4705 30.8244C31.4757 28.9979 32.0048 26.9344 32 24.8364C32.0048 23.7652 31.8749 22.7038 31.6104 21.6672C31.5816 21.5191 31.4421 21.4154 31.2978 21.445C31.2208 21.4598 31.1535 21.5042 31.115 21.5734Z" fill="black"/>
<path d="M20.5194 26.5592C22.0873 26.263 23.6024 25.7348 25.026 24.9943C25.5936 24.6982 25.9302 24.0762 25.8821 23.4245C25.7138 21.7116 25.3338 20.0331 24.7423 18.4238C24.3719 17.4365 23.7803 16.1333 23.0829 14.6523C21.3226 10.8857 19.115 6.16148 19.2352 2.45909C19.216 2.18758 18.9851 1.98024 18.7206 1.99999C18.634 2.00493 18.5523 2.03454 18.4801 2.08885C16.311 3.91043 14.4304 6.06769 12.901 8.47672C12.723 8.7581 12.6316 9.08885 12.6413 9.42453C12.9106 16.7701 15.4982 22.4175 19.0861 26.1248C19.4661 26.5049 20 26.6678 20.5194 26.5592Z" fill="black"/>
<path d="M25.5407 26.4605C24.3094 27.0874 23.0108 27.5613 21.669 27.8674C21.5535 27.8921 21.4766 28.0106 21.5006 28.129C21.5102 28.1833 21.5439 28.2327 21.5872 28.2673C22.578 28.988 23.6505 29.5903 24.7712 30.0691C24.8818 30.1185 25.0116 30.0592 25.0597 29.9457C25.4637 28.9041 25.7283 27.8082 25.8533 26.6925C25.8726 26.5691 25.7908 26.4556 25.6754 26.4407C25.6321 26.4358 25.584 26.4407 25.5407 26.4605Z" fill="black"/>
<g opacity="0.5">
<path d="M26.1274 32.098C25.887 32.0289 25.6272 32.1276 25.4926 32.3449C24.7375 33.6135 24.0497 35.2623 20.7214 37C23.2946 37 27.022 35.287 28.9459 32.9718C29.0276 32.8681 29.0132 32.7151 28.9122 32.6312C28.8737 32.5966 28.8256 32.5769 28.7727 32.5769C27.8781 32.5078 26.9932 32.3449 26.1274 32.098Z" fill="black"/>
</g>
<g opacity="0.5">
<path d="M9.16391 24.6784C11.2224 26.0113 13.9447 26.7271 17.0854 26.7962C17.2441 26.7962 17.3739 26.6629 17.3739 26.5C17.3739 26.426 17.3499 26.3568 17.3018 26.3025C14.2621 22.8075 12.0112 17.945 11.3715 11.8484C11.3667 11.7447 11.2801 11.6657 11.1791 11.6707C11.1118 11.6707 11.0541 11.7151 11.0252 11.7743C9.27934 15.2546 7.97112 19.2976 7.99998 23.4245C7.99998 23.6664 8.10579 23.8984 8.28856 24.0515C8.56752 24.2835 8.85609 24.4908 9.16391 24.6784Z" fill="black"/>
</g>
</g>
<defs>
<clipPath id="clip0_1515_2361">
<rect width="24" height="35" fill="white" transform="translate(8 2)"/>
</clipPath>
</defs>
</svg>
