<svg width="25" height="35" viewBox="0 0 25 35" fill="none" xmlns="http://www.w3.org/2000/svg">
<g id="Layer_1" clip-path="url(#clip0_38_234)">
<path id="Vector" d="M17.0482 11.9859C17.76 13.5014 18.3708 14.8096 18.7604 15.8857C19.3616 17.5247 19.7608 19.2327 19.9532 20.9703C19.9676 21.1382 20.1119 21.2616 20.2802 21.2468C20.3379 21.2419 20.3909 21.2172 20.4341 21.1826C21.6269 20.22 22.6033 19.0007 23.2862 17.6086C23.3632 17.4555 23.3632 17.2679 23.2862 17.1149C22.5167 15.7228 21.5019 14.4887 20.2947 13.4718C19.2895 12.598 17.8899 11.4182 16.5191 9.9915C16.4518 9.91746 16.3412 9.91252 16.269 9.98163C16.2113 10.0359 16.1969 10.1248 16.2305 10.1988L17.0482 11.9859Z" fill="white"/>
<g id="Group" opacity="0.5">
<path id="Vector_2" d="M16.2305 29.1305C14.754 28.4245 13.3736 27.5212 12.1231 26.445C11.9788 26.3216 11.7912 26.2525 11.6037 26.2623H10.2474C6.62091 26.2623 3.45618 25.4527 1.06099 23.9027L0.849365 23.7595C0.964796 24.574 1.14275 25.3787 1.38323 26.1636C1.59967 26.9485 1.89786 27.7087 2.26339 28.4344C2.26339 28.4443 2.26339 28.4591 2.26339 28.469C3.59566 31.0755 5.80327 33.1044 8.47261 34.1805C8.84295 34.3286 9.22772 34.4323 9.62211 34.4915C11.4882 34.4915 12.9071 33.6425 14.475 32.4676C15.2638 31.8406 15.9516 31.0853 16.5095 30.2362C16.7452 29.9055 16.673 29.4415 16.3508 29.2045C16.3123 29.1749 16.2738 29.1551 16.2305 29.1305Z" fill="white"/>
</g>
<path id="Vector_3" d="M23.7816 19.5734C22.839 20.9852 21.6558 22.2144 20.2851 23.1918C20.1408 23.2955 20.0542 23.4633 20.0446 23.6411C19.9917 25.1319 19.7223 26.6079 19.2414 28.0148C19.1259 28.3061 19.2606 28.6418 19.5444 28.7602C19.578 28.775 19.6165 28.7849 19.655 28.7948C20.6362 29.0416 21.6462 29.1502 22.6562 29.1206C22.8582 29.1206 23.041 29.0021 23.1372 28.8244C24.1424 26.9979 24.6714 24.9344 24.6666 22.8364C24.6714 21.7652 24.5416 20.7038 24.277 19.6672C24.2482 19.5191 24.1087 19.4154 23.9644 19.445C23.8875 19.4598 23.8201 19.5042 23.7816 19.5734Z" fill="white"/>
<path id="Vector_4" d="M13.186 24.5592C14.754 24.263 16.269 23.7348 17.6926 22.9943C18.2602 22.6981 18.5969 22.0761 18.5488 21.4245C18.3804 19.7115 18.0005 18.0331 17.4089 16.4238C17.0385 15.4365 16.447 14.1332 15.7496 12.6523C13.9892 8.88571 11.7816 4.16145 11.9019 0.459056C11.8826 0.187547 11.6518 -0.0197874 11.3872 -4.12705e-05C11.3007 0.00489526 11.2189 0.0345144 11.1468 0.0888163C8.97762 1.9104 7.09706 4.06766 5.5676 6.47669C5.38964 6.75807 5.29826 7.08882 5.30788 7.4245C5.57722 14.7701 8.16479 20.4174 11.7528 24.1248C12.1327 24.5049 12.6666 24.6678 13.186 24.5592Z" fill="white"/>
<path id="Vector_5" d="M18.2073 24.4605C16.9761 25.0874 15.6775 25.5613 14.3356 25.8674C14.2202 25.8921 14.1432 26.0106 14.1672 26.129C14.1769 26.1833 14.2105 26.2327 14.2538 26.2673C15.2446 26.988 16.3171 27.5903 17.4378 28.0691C17.5484 28.1185 17.6783 28.0592 17.7264 27.9457C18.1304 26.9041 18.3949 25.8082 18.52 24.6925C18.5392 24.5691 18.4574 24.4556 18.342 24.4407C18.2987 24.4358 18.2506 24.4407 18.2073 24.4605Z" fill="white"/>
<g id="Group_2" opacity="0.5">
<path id="Vector_6" d="M18.7941 30.098C18.5536 30.0289 18.2939 30.1276 18.1592 30.3448C17.4041 31.6135 16.7163 33.2623 13.3881 34.9999C15.9612 34.9999 19.6887 33.287 21.6125 30.9717C21.6943 30.8681 21.6798 30.715 21.5788 30.6311C21.5404 30.5966 21.4923 30.5768 21.4394 30.5768C20.5448 30.5077 19.6598 30.3448 18.7941 30.098Z" fill="white"/>
</g>
<g id="Group_3" opacity="0.5">
<path id="Vector_7" d="M1.83053 22.6784C3.88905 24.0113 6.61129 24.727 9.75198 24.7962C9.91069 24.7962 10.0406 24.6629 10.0406 24.5C10.0406 24.4259 10.0165 24.3568 9.96841 24.3025C6.92873 20.8074 4.67783 15.945 4.03815 9.84834C4.03334 9.74468 3.94677 9.66569 3.84576 9.67063C3.77843 9.67063 3.72071 9.71506 3.69186 9.7743C1.94596 13.2546 0.637748 17.2976 0.666606 21.4245C0.666606 21.6664 0.772418 21.8984 0.955183 22.0514C1.23414 22.2835 1.52272 22.4908 1.83053 22.6784Z" fill="white"/>
</g>
</g>
<defs>
<clipPath id="clip0_38_234">
<rect width="24" height="35" fill="white" transform="translate(0.666626)"/>
</clipPath>
</defs>
</svg>
