<svg width="40" height="40" viewBox="0 0 40 40" fill="none" xmlns="http://www.w3.org/2000/svg">
<g clip-path="url(#clip0_1515_2349)">
<path d="M24.3815 14.9859C25.0934 16.5014 25.7042 17.8096 26.0938 18.8858C26.695 20.5247 27.0942 22.2327 27.2866 23.9704C27.301 24.1382 27.4453 24.2616 27.6136 24.2468C27.6713 24.2419 27.7242 24.2172 27.7675 24.1826C28.9603 23.22 29.9367 22.0007 30.6196 20.6086C30.6966 20.4556 30.6966 20.268 30.6196 20.1149C29.8501 18.7228 28.8353 17.4887 27.628 16.4718C26.6228 15.598 25.2232 14.4182 23.8525 12.9915C23.7851 12.9175 23.6745 12.9126 23.6024 12.9817C23.5447 13.036 23.5302 13.1248 23.5639 13.1989L24.3815 14.9859Z" fill="white"/>
<g opacity="0.5">
<path d="M23.5639 32.1305C22.0873 31.4245 20.707 30.5212 19.4565 29.445C19.3122 29.3216 19.1246 29.2525 18.937 29.2623H17.5807C13.9543 29.2623 10.7896 28.4527 8.39436 26.9027L8.18274 26.7595C8.29817 27.574 8.47613 28.3787 8.71661 29.1636C8.93304 29.9485 9.23124 30.7087 9.59677 31.4344C9.59677 31.4443 9.59677 31.4591 9.59677 31.469C10.929 34.0755 13.1366 36.1044 15.806 37.1805C16.1763 37.3286 16.5611 37.4323 16.9555 37.4915C18.8216 37.4915 20.2405 36.6425 21.8084 35.4676C22.5972 34.8406 23.2849 34.0853 23.8429 33.2362C24.0785 32.9055 24.0064 32.4415 23.6841 32.2045C23.6457 32.1749 23.6072 32.1551 23.5639 32.1305Z" fill="white"/>
</g>
<path d="M31.115 22.5734C30.1723 23.9852 28.9892 25.2144 27.6184 26.1918C27.4741 26.2955 27.3876 26.4633 27.3779 26.6411C27.325 28.1319 27.0557 29.6079 26.5747 31.0148C26.4593 31.3061 26.594 31.6418 26.8777 31.7602C26.9114 31.775 26.9499 31.7849 26.9884 31.7948C27.9695 32.0416 28.9796 32.1502 29.9896 32.1206C30.1916 32.1206 30.3743 32.0021 30.4705 31.8244C31.4757 29.9979 32.0048 27.9344 32 25.8364C32.0048 24.7652 31.8749 23.7038 31.6104 22.6672C31.5816 22.5191 31.4421 22.4154 31.2978 22.445C31.2208 22.4598 31.1535 22.5042 31.115 22.5734Z" fill="white"/>
<path d="M20.5194 27.5592C22.0873 27.263 23.6024 26.7348 25.026 25.9943C25.5936 25.6982 25.9302 25.0762 25.8821 24.4245C25.7138 22.7116 25.3338 21.0331 24.7423 19.4238C24.3719 18.4365 23.7803 17.1333 23.0829 15.6523C21.3226 11.8857 19.115 7.16148 19.2352 3.45909C19.216 3.18758 18.9851 2.98024 18.7206 2.99999C18.634 3.00493 18.5523 3.03454 18.4801 3.08885C16.311 4.91043 14.4304 7.06769 12.901 9.47672C12.723 9.7581 12.6316 10.0888 12.6413 10.4245C12.9106 17.7701 15.4982 23.4175 19.0861 27.1248C19.4661 27.5049 20 27.6678 20.5194 27.5592Z" fill="white"/>
<path d="M25.5407 27.4605C24.3094 28.0874 23.0108 28.5613 21.669 28.8674C21.5535 28.8921 21.4766 29.0106 21.5006 29.129C21.5102 29.1833 21.5439 29.2327 21.5872 29.2673C22.578 29.988 23.6505 30.5903 24.7712 31.0691C24.8818 31.1185 25.0116 31.0592 25.0597 30.9457C25.4637 29.9041 25.7283 28.8082 25.8533 27.6925C25.8726 27.5691 25.7908 27.4556 25.6754 27.4407C25.6321 27.4358 25.584 27.4407 25.5407 27.4605Z" fill="white"/>
<g opacity="0.5">
<path d="M26.1274 33.098C25.887 33.0289 25.6272 33.1276 25.4926 33.3449C24.7375 34.6135 24.0497 36.2623 20.7214 38C23.2946 38 27.022 36.287 28.9459 33.9718C29.0276 33.8681 29.0132 33.7151 28.9122 33.6312C28.8737 33.5966 28.8256 33.5769 28.7727 33.5769C27.8781 33.5078 26.9932 33.3449 26.1274 33.098Z" fill="white"/>
</g>
<g opacity="0.5">
<path d="M9.16391 25.6784C11.2224 27.0113 13.9447 27.7271 17.0854 27.7962C17.2441 27.7962 17.3739 27.6629 17.3739 27.5C17.3739 27.426 17.3499 27.3568 17.3018 27.3025C14.2621 23.8075 12.0112 18.945 11.3715 12.8484C11.3667 12.7447 11.2801 12.6657 11.1791 12.6707C11.1118 12.6707 11.0541 12.7151 11.0252 12.7743C9.27934 16.2546 7.97112 20.2976 7.99998 24.4245C7.99998 24.6664 8.10579 24.8984 8.28856 25.0515C8.56752 25.2835 8.85609 25.4908 9.16391 25.6784Z" fill="white"/>
</g>
</g>
<defs>
<clipPath id="clip0_1515_2349">
<rect width="24" height="35" fill="white" transform="translate(8 3)"/>
</clipPath>
</defs>
</svg>
