<svg width="39" height="14" viewBox="0 0 39 14" fill="none" xmlns="http://www.w3.org/2000/svg">
<g id="Layer_1" clip-path="url(#clip0_38_220)">
<path id="Vector" d="M2.94317 4.23845C2.86722 4.23845 2.84823 4.20196 2.88621 4.14722L3.28496 3.65458C3.32294 3.59985 3.41788 3.56335 3.49383 3.56335H10.2726C10.3486 3.56335 10.3676 3.61809 10.3296 3.67283L10.0068 4.14722C9.96883 4.20196 9.87389 4.25669 9.81692 4.25669L2.94317 4.23845Z" fill="white"/>
<path id="Vector_2" d="M0.0759531 5.91716C0 5.91716 -0.0189883 5.88067 0.0189883 5.82593L0.417742 5.33329C0.455718 5.27856 0.55066 5.24207 0.626613 5.24207H9.28526C9.36121 5.24207 9.39919 5.2968 9.3802 5.35154L9.2283 5.78944C9.20931 5.86242 9.13336 5.89891 9.0574 5.89891L0.0759531 5.91716Z" fill="white"/>
<path id="Vector_3" d="M4.67111 7.59575C4.59515 7.59575 4.57617 7.54101 4.61414 7.48627L4.87998 7.03013C4.91795 6.97539 4.99391 6.92065 5.06986 6.92065H8.86751C8.94347 6.92065 8.98144 6.97539 8.98144 7.04838L8.94347 7.48627C8.94347 7.55926 8.86751 7.61399 8.81055 7.61399L4.67111 7.59575Z" fill="white"/>
<g id="CXHf1q">
<g id="Group">
<path id="Vector_4" d="M24.3809 3.91013C23.1847 4.20206 22.3682 4.42101 21.1909 4.71295C20.9061 4.78593 20.8871 4.80418 20.6402 4.53049C20.3554 4.22031 20.1466 4.01961 19.7478 3.83715C18.5515 3.27153 17.3933 3.43574 16.3109 4.11084C15.0197 4.91365 14.3551 6.09963 14.3741 7.57754C14.3931 9.0372 15.4375 10.2414 16.9375 10.4421C18.2287 10.6063 19.3111 10.1684 20.1655 9.2379C20.3364 9.0372 20.4883 8.81825 20.6782 8.56281H17.0135C16.6147 8.56281 16.5198 8.32561 16.6527 8.01544C16.8996 7.44982 17.3553 6.50103 17.6211 6.02664C17.6781 5.91717 17.811 5.73471 18.0958 5.73471H25.0075C24.9696 6.22735 24.9696 6.71998 24.8936 7.21262C24.6847 8.52632 24.1721 9.73054 23.3366 10.7888C21.9694 12.5221 20.1845 13.5986 17.9249 13.8906C16.0641 14.1278 14.3361 13.7811 12.8171 12.6864C11.4119 11.6646 10.6144 10.3144 10.4056 8.63579C10.1587 6.647 10.7663 4.85891 12.0196 3.28977C13.3677 1.59292 15.1526 0.516413 17.3363 0.133251C19.1212 -0.176927 20.8301 0.0237766 22.3682 1.0273C23.3746 1.6659 24.0961 2.5417 24.5708 3.59995C24.6847 3.76416 24.6088 3.85539 24.3809 3.91013Z" fill="white"/>
<path id="Vector_5" d="M30.6661 14C28.9381 13.9636 27.3621 13.4892 26.0329 12.3944C24.9126 11.4639 24.2101 10.2779 23.9822 8.87298C23.6404 6.8112 24.229 4.98663 25.5202 3.36275C26.9064 1.61115 28.5774 0.698863 30.837 0.315702C32.7738 -0.0127228 34.5966 0.169735 36.2486 1.24624C37.7487 2.23151 38.6791 3.56345 38.926 5.31505C39.2488 7.77823 38.5082 9.78527 36.7423 11.5004C35.4891 12.7228 33.951 13.4892 32.1851 13.8358C31.6724 13.9271 31.1598 13.9453 30.6661 14ZM35.1853 6.62875C35.1663 6.39155 35.1663 6.20909 35.1283 6.02664C34.7865 4.2203 33.0586 3.19854 31.2547 3.59994C29.4888 3.98311 28.3495 5.05961 27.9318 6.77471C27.59 8.19789 28.3115 9.6393 29.6787 10.2232C30.723 10.6611 31.7674 10.6063 32.7738 10.1137C34.2738 9.36562 35.0903 8.19789 35.1853 6.62875Z" fill="white"/>
</g>
</g>
</g>
<defs>
<clipPath id="clip0_38_220">
<rect width="39" height="14" fill="white"/>
</clipPath>
</defs>
</svg>
