<svg width="40" height="40" viewBox="0 0 40 40" fill="none" xmlns="http://www.w3.org/2000/svg">
<g clip-path="url(#clip0_1515_2405)">
<path d="M2.9432 17.2385C2.86725 17.2385 2.84826 17.202 2.88624 17.1473L3.28499 16.6546C3.32297 16.5999 3.41791 16.5634 3.49386 16.5634H10.2727C10.3486 16.5634 10.3676 16.6182 10.3296 16.6729L10.0068 17.1473C9.96886 17.202 9.87392 17.2568 9.81695 17.2568L2.9432 17.2385Z" fill="white"/>
<path d="M0.0759531 18.9171C0 18.9171 -0.0189883 18.8806 0.0189883 18.8259L0.417742 18.3332C0.455718 18.2785 0.55066 18.242 0.626613 18.242H9.28526C9.36121 18.242 9.39919 18.2967 9.3802 18.3515L9.2283 18.7894C9.20931 18.8624 9.13336 18.8989 9.0574 18.8989L0.0759531 18.9171Z" fill="white"/>
<path d="M4.67111 20.5957C4.59515 20.5957 4.57617 20.541 4.61414 20.4863L4.87998 20.0301C4.91795 19.9754 4.99391 19.9207 5.06986 19.9207H8.86751C8.94347 19.9207 8.98144 19.9754 8.98144 20.0484L8.94347 20.4863C8.94347 20.5593 8.86751 20.614 8.81055 20.614L4.67111 20.5957Z" fill="white"/>
<path d="M24.3809 16.9101C23.1847 17.202 22.3682 17.421 21.1909 17.7129C20.9061 17.7859 20.8871 17.8041 20.6402 17.5304C20.3554 17.2202 20.1466 17.0195 19.7478 16.8371C18.5515 16.2715 17.3933 16.4357 16.3109 17.1108C15.0197 17.9136 14.3551 19.0996 14.3741 20.5775C14.3931 22.0371 15.4375 23.2414 16.9375 23.4421C18.2287 23.6063 19.3111 23.1684 20.1655 22.2378C20.3364 22.0371 20.4883 21.8182 20.6782 21.5627H17.0135C16.6147 21.5627 16.5198 21.3256 16.6527 21.0154C16.8996 20.4498 17.3553 19.501 17.6211 19.0266C17.6781 18.9171 17.811 18.7346 18.0958 18.7346H25.0075C24.9696 19.2273 24.9696 19.7199 24.8936 20.2126C24.6847 21.5263 24.1721 22.7305 23.3366 23.7887C21.9694 25.5221 20.1845 26.5986 17.9249 26.8905C16.0641 27.1277 14.3361 26.781 12.8171 25.6863C11.4119 24.6645 10.6144 23.3143 10.4056 21.6357C10.1587 19.6469 10.7663 17.8589 12.0196 16.2897C13.3677 14.5929 15.1526 13.5164 17.3363 13.1332C19.1212 12.823 20.8301 13.0237 22.3682 14.0272C23.3746 14.6658 24.0961 15.5416 24.5708 16.5999C24.6847 16.7641 24.6088 16.8553 24.3809 16.9101Z" fill="white"/>
<path d="M30.666 27C28.9381 26.9635 27.3621 26.4891 26.0329 25.3944C24.9126 24.4638 24.21 23.2778 23.9822 21.8729C23.6404 19.8111 24.229 17.9866 25.5202 16.3627C26.9064 14.6111 28.5773 13.6988 30.8369 13.3156C32.7737 12.9872 34.5966 13.1697 36.2486 14.2462C37.7487 15.2314 38.6791 16.5634 38.9259 18.315C39.2487 20.7782 38.5082 22.7852 36.7423 24.5003C35.4891 25.7228 33.951 26.4891 32.1851 26.8358C31.6724 26.927 31.1597 26.9453 30.666 27ZM35.1852 19.6287C35.1663 19.3915 35.1663 19.209 35.1283 19.0266C34.7865 17.2202 33.0586 16.1985 31.2547 16.5999C29.4888 16.983 28.3495 18.0595 27.9317 19.7747C27.5899 21.1978 28.3115 22.6392 29.6786 23.2231C30.723 23.661 31.7674 23.6063 32.7737 23.1136C34.2738 22.3656 35.0903 21.1978 35.1852 19.6287Z" fill="white"/>
</g>
<defs>
<clipPath id="clip0_1515_2405">
<rect width="39" height="14" fill="white" transform="translate(0 13)"/>
</clipPath>
</defs>
</svg>
