<svg width="40" height="40" viewBox="0 0 40 40" fill="none" xmlns="http://www.w3.org/2000/svg">
<g clip-path="url(#clip0_1515_2458)">
<path d="M7 10.4163V29.5841C7 31.471 8.52946 33.0004 10.4163 33.0004H29.5841C31.471 33.0004 33.0004 31.471 33.0004 29.5841V10.4163C33.0004 8.52946 31.471 7 29.5841 7H10.4163C8.52946 7 7 8.52946 7 10.4163ZM21.1593 27.2788C21.1593 29.8086 19.676 30.96 17.511 30.96C15.5548 30.96 14.422 29.9477 13.8458 28.7282L15.8346 27.5243C16.2184 28.2053 16.5676 28.781 17.407 28.781C18.2464 28.781 18.7161 28.4669 18.7161 27.2457V18.9381H21.1593V27.2788ZM26.9321 30.9646C24.6631 30.9646 23.1972 29.8833 22.4799 28.4661L24.4654 27.3126C24.9891 28.1677 25.6705 28.7963 26.8756 28.7963C27.8879 28.7963 28.5346 28.2903 28.5346 27.5912C28.5346 26.7534 27.8702 26.4567 26.7559 25.9693L26.1451 25.7072C24.382 24.9561 23.2108 24.0151 23.2108 22.0259C23.2108 20.1936 24.607 18.7986 26.7889 18.7986C28.3423 18.7986 29.459 19.3393 30.2638 20.7548L28.3613 21.9764C27.9424 21.2253 27.4905 20.9294 26.7889 20.9294C26.0873 20.9294 25.6197 21.3834 25.6197 21.9764C25.6197 22.7094 26.0737 23.0061 27.1219 23.4601L27.7327 23.7217C29.8086 24.6119 30.9807 25.5194 30.9807 27.5598C30.9807 29.7595 29.2527 30.9646 26.9321 30.9646Z" fill="black"/>
</g>
<defs>
<clipPath id="clip0_1515_2458">
<rect width="26" height="26" fill="white" transform="translate(7 7)"/>
</clipPath>
</defs>
</svg>
