<svg width="40" height="40" viewBox="0 0 40 40" fill="none" xmlns="http://www.w3.org/2000/svg">
<path d="M15.3418 30.4064C15.3418 30.4064 13.8389 31.2804 16.4117 31.5758C19.5276 31.931 21.1203 31.8807 24.5534 31.23C24.5534 31.23 25.4559 31.7963 26.7165 32.2863C19.0199 35.5847 9.29639 32.0958 15.3418 30.4064Z" fill="black"/>
<path d="M14.4014 26.1022C14.4014 26.1022 12.7162 27.3491 15.2903 27.616C18.6186 27.959 21.2472 27.9876 25.7952 27.1123C25.7952 27.1123 26.4241 27.7507 27.4137 28.0992C18.1081 30.8204 7.74213 28.3143 14.4028 26.1036" fill="black"/>
<path d="M22.3291 18.8003C24.2254 20.9838 21.8309 22.9481 21.8309 22.9481C21.8309 22.9481 26.647 20.4624 24.435 17.3492C22.37 14.4457 20.7854 13.0041 29.36 8.03003C29.36 8.03003 15.8999 11.3923 22.3291 18.799" fill="black"/>
<path d="M32.5087 33.5906C32.5087 33.5906 33.6208 34.5068 31.2835 35.216C26.8404 36.5623 12.7921 36.9679 8.88941 35.2691C7.48594 34.6592 10.1173 33.8112 10.9449 33.6342C11.808 33.4477 12.3007 33.4817 12.3007 33.4817C10.7407 32.3832 2.2165 35.6393 7.97055 36.5732C23.6632 39.1187 36.5775 35.427 32.5073 33.5906" fill="black"/>
<path d="M16.0633 21.6414C16.0633 21.6414 8.91801 23.3389 13.5327 23.9555C15.482 24.2169 19.3657 24.157 22.9853 23.8548C25.942 23.6057 28.9122 23.0748 28.9122 23.0748C28.9122 23.0748 27.8695 23.5213 27.1154 24.0359C19.8585 25.9443 5.8402 25.0568 9.87634 23.1047C13.289 21.4549 16.0646 21.6428 16.0646 21.6428" fill="black"/>
<path d="M28.8823 28.807C36.2589 24.9736 32.8476 21.2901 30.4681 21.7869C29.8842 21.9081 29.6242 22.0143 29.6242 22.0143C29.6242 22.0143 29.8406 21.6753 30.2544 21.5283C34.9644 19.873 38.5853 26.4111 28.7339 29.0016C28.7339 29.0016 28.8482 28.8995 28.8823 28.8083" fill="black"/>
<path d="M24.4353 0C24.4353 0 28.5204 4.08651 20.5611 10.3715C14.1782 15.4122 19.1059 18.2872 20.5584 21.5706C16.8326 18.2082 14.0979 15.2489 15.9328 12.495C18.6254 8.45208 26.0838 6.49186 24.4353 0Z" fill="black"/>
<path d="M16.7888 39.1949C23.8701 39.6482 34.7425 38.943 34.9998 35.593C34.9998 35.593 34.5043 36.863 29.1477 37.8717C23.1037 39.0084 15.6508 38.8763 11.2294 38.1467C11.2294 38.1467 12.1347 38.8954 16.7875 39.1935" fill="black"/>
</svg>
