<svg width="30" height="40" viewBox="0 0 30 40" fill="none" xmlns="http://www.w3.org/2000/svg">
<g id="Group 12">
<path id="Vector" d="M9.67513 30.4064C9.67513 30.4064 8.1723 31.2803 10.7451 31.5757C13.861 31.931 15.4537 31.8806 18.8868 31.2299C18.8868 31.2299 19.7893 31.7962 21.0498 32.2863C13.3533 35.5846 3.62977 32.0957 9.67513 30.4064Z" fill="white"/>
<path id="Vector_2" d="M8.73473 26.1022C8.73473 26.1022 7.04949 27.3491 9.62364 27.6159C12.9519 27.9589 15.5805 27.9875 20.1285 27.1122C20.1285 27.1122 20.7574 27.7507 21.747 28.0991C12.4414 30.8203 2.07544 28.3142 8.73609 26.1035" fill="white"/>
<path id="Vector_3" d="M16.6626 18.8003C18.5588 20.9838 16.1643 22.9481 16.1643 22.9481C16.1643 22.9481 20.9805 20.4624 18.7684 17.3492C16.7034 14.4457 15.1189 13.0041 23.6935 8.03003C23.6935 8.03003 10.2333 11.3923 16.6626 18.799" fill="white"/>
<path id="Vector_4" d="M26.842 33.5906C26.842 33.5906 27.9542 34.5068 25.6169 35.216C21.1737 36.5623 7.12552 36.9679 3.22278 35.2691C1.81932 34.6592 4.45064 33.8112 5.27829 33.6342C6.14133 33.4477 6.6341 33.4817 6.6341 33.4817C5.0741 32.3832 -3.45013 35.6393 2.30393 36.5732C17.9966 39.1187 30.9109 35.427 26.8407 33.5906" fill="white"/>
<path id="Vector_5" d="M10.3966 21.6413C10.3966 21.6413 3.25133 23.3388 7.866 23.9555C9.81533 24.2168 13.699 24.1569 17.3186 23.8547C20.2753 23.6056 23.2455 23.0747 23.2455 23.0747C23.2455 23.0747 22.2028 23.5212 21.4487 24.0358C14.1918 25.9443 0.173512 25.0567 4.20965 23.1047C7.62234 21.4548 10.398 21.6427 10.398 21.6427" fill="white"/>
<path id="Vector_6" d="M23.2156 28.807C30.5923 24.9736 27.181 21.2901 24.8015 21.7869C24.2175 21.9081 23.9575 22.0143 23.9575 22.0143C23.9575 22.0143 24.174 21.6753 24.5878 21.5283C29.2978 19.873 32.9187 26.4111 23.0673 29.0016C23.0673 29.0016 23.1816 28.8995 23.2156 28.8083" fill="white"/>
<path id="Vector_7" d="M18.7687 0C18.7687 0 22.8538 4.08651 14.8945 10.3715C8.51154 15.4122 13.4393 18.2872 14.8918 21.5706C11.166 18.2082 8.43123 15.2489 10.2662 12.495C12.9588 8.45208 20.4171 6.49186 18.7687 0Z" fill="white"/>
<path id="Vector_8" d="M11.1223 39.1949C18.2035 39.6482 29.0759 38.9431 29.3332 35.593C29.3332 35.593 28.8377 36.8631 23.4812 37.8718C17.4372 39.0084 9.98425 38.8764 5.56287 38.1467C5.56287 38.1467 6.46811 38.8954 11.1209 39.1936" fill="white"/>
</g>
</svg>
