<svg width="27" height="26" viewBox="0 0 27 26" fill="none" xmlns="http://www.w3.org/2000/svg">
<g id="Layer_1" clip-path="url(#clip0_38_294)">
<path id="Vector" d="M0.666626 3.41632V22.5841C0.666626 24.471 2.19609 26.0004 4.08294 26.0004H23.2507C25.1376 26.0004 26.667 24.471 26.667 22.5841V3.41632C26.667 1.52946 25.1376 0 23.2507 0H4.08294C2.19609 0 0.666626 1.52946 0.666626 3.41632ZM14.8259 20.2788C14.8259 22.8086 13.3427 23.96 11.1776 23.96C9.22145 23.96 8.08859 22.9477 7.51247 21.7282L9.50126 20.5243C9.88507 21.2053 10.2342 21.781 11.0736 21.781C11.9131 21.781 12.3827 21.4669 12.3827 20.2457V11.9381H14.8259V20.2788ZM20.5987 23.9646C18.3297 23.9646 16.8638 22.8833 16.1465 21.4661L18.132 20.3126C18.6557 21.1677 19.3371 21.7963 20.5422 21.7963C21.5545 21.7963 22.2012 21.2903 22.2012 20.5912C22.2012 19.7534 21.5368 19.4567 20.4225 18.9693L19.8117 18.7072C18.0487 17.9561 16.8774 17.0151 16.8774 15.0259C16.8774 13.1936 18.2736 11.7986 20.4555 11.7986C22.0089 11.7986 23.1257 12.3393 23.9304 13.7548L22.0279 14.9764C21.609 14.2253 21.1571 13.9294 20.4555 13.9294C19.7539 13.9294 19.2863 14.3834 19.2863 14.9764C19.2863 15.7094 19.7403 16.0061 20.7886 16.4601L21.3994 16.7217C23.4752 17.6119 24.6473 18.5194 24.6473 20.5598C24.6473 22.7595 22.9193 23.9646 20.5987 23.9646Z" fill="white"/>
</g>
<defs>
<clipPath id="clip0_38_294">
<rect width="26" height="26" fill="white" transform="translate(0.666626)"/>
</clipPath>
</defs>
</svg>
