<svg width="40" height="40" viewBox="0 0 40 40" fill="none" xmlns="http://www.w3.org/2000/svg">
<path d="M20 7C19.55 7 19.15 7.28 19.03 7.7L18.15 10.78C17.23 10.96 16.36 11.27 15.55 11.69L12.95 9.85C12.55 9.57 12.02 9.6 11.66 9.93L9.93 11.66C9.6 12.02 9.57 12.55 9.85 12.95L11.69 15.55C11.27 16.36 10.96 17.23 10.78 18.15L7.7 19.03C7.28 19.15 7 19.55 7 20C7 20.45 7.28 20.85 7.7 20.97L10.78 21.85C10.96 22.77 11.27 23.64 11.69 24.45L9.85 27.05C9.57 27.45 9.6 27.98 9.93 28.34L11.66 30.07C12.02 30.4 12.55 30.43 12.95 30.15L15.55 28.31C16.36 28.73 17.23 29.04 18.15 29.22L19.03 32.3C19.15 32.72 19.55 33 20 33C20.45 33 20.85 32.72 20.97 32.3L21.85 29.22C22.77 29.04 23.64 28.73 24.45 28.31L27.05 30.15C27.45 30.43 27.98 30.4 28.34 30.07L30.07 28.34C30.4 27.98 30.43 27.45 30.15 27.05L28.31 24.45C28.73 23.64 29.04 22.77 29.22 21.85L32.3 20.97C32.72 20.85 33 20.45 33 20C33 19.55 32.72 19.15 32.3 19.03L29.22 18.15C29.04 17.23 28.73 16.36 28.31 15.55L30.15 12.95C30.43 12.55 30.4 12.02 30.07 11.66L28.34 9.93C27.98 9.6 27.45 9.57 27.05 9.85L24.45 11.69C23.64 11.27 22.77 10.96 21.85 10.78L20.97 7.7C20.85 7.28 20.45 7 20 7ZM20 15C22.76 15 25 17.24 25 20C25 22.76 22.76 25 20 25C17.24 25 15 22.76 15 20C15 17.24 17.24 15 20 15Z" fill="white"/>
</svg>
