<svg width="40" height="40" viewBox="0 0 40 40" fill="none" xmlns="http://www.w3.org/2000/svg">
<g clip-path="url(#clip0_1515_2344)">
<path d="M4.00491 15.014H9.64176C11.2947 15.014 12.4941 15.5026 13.24 16.4334C13.9859 17.3642 14.2275 18.6447 13.9732 20.2578C13.8715 21.0118 13.6511 21.7446 13.3205 22.4312C12.9942 23.1472 12.5407 23.8001 11.977 24.356C11.3752 25.0215 10.5954 25.4975 9.72652 25.7333C8.91278 25.9313 8.07785 26.0324 7.24292 26.0282H4.74236L3.92014 29.979H1L4.00491 15.014ZM6.46732 17.3979L5.19585 23.6653C5.28062 23.6737 5.36538 23.6737 5.45014 23.6653H5.74258C6.87843 23.7032 8.01428 23.5726 9.10774 23.2694C10.0062 22.9745 10.6081 21.9594 10.9175 20.2157C11.1675 18.7542 10.9175 17.9118 10.1588 17.6886C9.2476 17.4443 8.30248 17.339 7.36159 17.3769H6.43765H6.45884" fill="black"/>
<path d="M17.3045 11H20.2077L19.3855 15.014H21.992C23.4245 15.0434 24.4883 15.3341 25.1919 15.89C25.8954 16.446 26.1158 17.5074 25.8191 19.0701L24.412 26.0071H21.4665L22.8142 19.3607C22.9541 18.6657 22.9117 18.1687 22.6871 17.8781C22.4624 17.5875 21.9793 17.4569 21.2376 17.4569H18.9023L17.1774 26.0071H14.2742L17.3045 11Z" fill="black"/>
<path d="M28.9384 15.014H34.5711C36.2282 15.014 37.4276 15.5026 38.1693 16.4334C38.911 17.3642 39.1568 18.6447 38.9068 20.2578C38.8008 21.0118 38.5804 21.7446 38.2541 22.4312C37.9277 23.1472 37.47 23.8001 36.9063 24.356C36.3045 25.0215 35.5247 25.5017 34.6558 25.7333C33.8463 25.9313 33.0114 26.0324 32.1764 26.0282H29.6335L28.8367 30H25.9335L28.9384 15.014ZM31.3966 17.3979L30.1251 23.6653C30.2099 23.6737 30.2947 23.6737 30.3794 23.6653H30.6719C31.8077 23.7032 32.9436 23.5726 34.037 23.2694C34.9355 22.9745 35.5374 21.9594 35.8468 20.2157C36.1011 18.7542 35.8468 17.9118 35.0881 17.6886C34.1769 17.4443 33.2318 17.339 32.2909 17.3769H31.3797" fill="black"/>
</g>
<defs>
<clipPath id="clip0_1515_2344">
<rect width="38" height="19" fill="white" transform="translate(1 11)"/>
</clipPath>
</defs>
</svg>
