<svg width="39" height="19" viewBox="0 0 39 19" fill="none" xmlns="http://www.w3.org/2000/svg">
<g id="Layer_1" clip-path="url(#clip0_38_168)">
<path id="Vector" d="M3.33828 4.01392H8.97513C10.628 4.01392 11.8275 4.5025 12.5734 5.43334C13.3193 6.36417 13.5609 7.6446 13.3066 9.25776C13.2049 10.0117 12.9845 10.7446 12.6539 11.4311C12.3276 12.1471 11.8741 12.8 11.3104 13.356C10.7086 14.0215 9.92873 14.4974 9.0599 14.7333C8.24616 14.9312 7.41122 15.0323 6.57629 15.0281H4.07573L3.25352 18.9789H0.333374L3.33828 4.01392ZM5.80069 6.39787L4.52922 12.6652C4.61399 12.6736 4.69875 12.6736 4.78352 12.6652H5.07596C6.2118 12.7031 7.34765 12.5725 8.44111 12.2693C9.33962 11.9745 9.94145 10.9594 10.2508 9.21564C10.5009 7.75411 10.2508 6.91172 9.4922 6.68849C8.58098 6.4442 7.63585 6.3389 6.69496 6.37681H5.77103H5.79222" fill="white"/>
<path id="Vector_2" d="M16.6379 0H19.5411L18.7189 4.01397H21.3254C22.7579 4.04345 23.8217 4.33407 24.5252 4.89005C25.2288 5.44602 25.4492 6.50743 25.1525 8.07005L23.7454 15.0071H20.7998L22.1476 8.36067C22.2874 7.66571 22.2451 7.1687 22.0204 6.87808C21.7958 6.58745 21.3127 6.45688 20.571 6.45688H18.2357L16.5107 15.0071H13.6075L16.6379 0Z" fill="white"/>
<path id="Vector_3" d="M28.2718 4.01392H33.9044C35.5615 4.01392 36.7609 4.5025 37.5026 5.43334C38.2443 6.36417 38.4901 7.6446 38.2401 9.25776C38.1341 10.0117 37.9137 10.7446 37.5874 11.4311C37.261 12.1471 36.8033 12.8 36.2396 13.356C35.6378 14.0215 34.858 14.5016 33.9891 14.7333C33.1796 14.9312 32.3447 15.0323 31.5098 15.0281H28.9668L28.17 19H25.2668L28.2718 4.01392ZM30.7299 6.39787L29.4585 12.6652C29.5432 12.6736 29.628 12.6736 29.7128 12.6652H30.0052C31.141 12.7031 32.2769 12.5725 33.3703 12.2693C34.2689 11.9745 34.8707 10.9594 35.1801 9.21564C35.4344 7.75411 35.1801 6.91172 34.4214 6.68849C33.5102 6.4442 32.5651 6.3389 31.6242 6.37681H30.713" fill="white"/>
</g>
<defs>
<clipPath id="clip0_38_168">
<rect width="38" height="19" fill="white" transform="translate(0.333374)"/>
</clipPath>
</defs>
</svg>
