<svg width="40" height="40" viewBox="0 0 40 40" fill="none" xmlns="http://www.w3.org/2000/svg">
<g clip-path="url(#clip0_1515_2377)">
<path opacity="0.75" d="M24.4095 5.00001H16.0908C14.2011 5.00001 12.6726 6.56855 12.6684 8.50238V11.9961H20.6218C21.0291 11.9961 21.3524 12.3399 21.3524 12.7525C21.3524 12.7955 21.3524 12.8341 21.3399 12.8771C21.2643 13.2467 20.9409 13.5088 20.5714 13.5002H8.12902C6.94903 13.5045 6 14.4843 6 15.6876C6 15.6876 6 15.6919 6 15.6962V25.0774C6 26.2806 6.95323 27.2561 8.12902 27.2561H12.6936C12.8532 27.2561 13.0127 27.2347 13.1681 27.2003V22.9502C13.1681 21.6008 13.1681 19.0825 16.5275 19.0825H24.8504C25.8204 19.0825 26.2236 18.7903 26.2236 16.9725V5.38248C25.6567 5.11604 25.0352 4.98282 24.4095 5.00001ZM17.7957 10.303C17.2246 10.3073 16.7585 9.83886 16.7543 9.25442C16.7501 8.66997 17.2078 8.19296 17.7789 8.18867C18.35 8.18437 18.8161 8.65278 18.8203 9.23723C18.8203 9.23723 18.8203 9.24582 18.8203 9.25012C18.8203 9.83027 18.3626 10.2987 17.7957 10.303Z" fill="black"/>
<path d="M32.976 12.9459H28.4114C28.235 12.9459 28.0587 12.9716 27.8907 13.0232V16.9854C27.8907 17.9351 27.8907 20.8144 24.8378 20.8144H16.5233C14.9108 20.8144 14.8436 21.4461 14.8436 22.9631V34.566C15.4147 34.8625 16.0488 35.0086 16.6913 34.9957H25.0142C26.8451 34.9957 28.3316 33.4744 28.3316 31.6008V28.2059H20.5C20.0381 28.2144 19.656 27.832 19.6476 27.3593C19.6476 27.3077 19.6476 27.2518 19.6602 27.2003C19.7441 26.7791 20.1137 26.4783 20.5336 26.4869H32.976C34.093 26.4869 35 25.5587 35 24.4156C35 24.4156 35 24.4156 35 24.4113V15.0172C35 13.8741 34.093 12.9459 32.976 12.9459ZM22.8474 29.8432C23.4185 29.8432 23.8804 30.3159 23.8804 30.9003C23.8804 31.4848 23.4185 31.9575 22.8474 31.9575C22.2763 31.9575 21.8144 31.4848 21.8144 30.9003C21.8144 30.3159 22.2763 29.8432 22.8474 29.8432Z" fill="black"/>
</g>
<defs>
<clipPath id="clip0_1515_2377">
<rect width="29" height="30" fill="white" transform="translate(6 5)"/>
</clipPath>
</defs>
</svg>
