<svg width="30" height="30" viewBox="0 0 30 30" fill="none" xmlns="http://www.w3.org/2000/svg">
<g id="Layer_1" clip-path="url(#clip0_38_67)">
<path id="Vector" opacity="0.75" d="M18.7429 1.17666e-05H10.4242C8.5345 1.17666e-05 7.00598 1.56855 7.00178 3.50238V6.99614H14.9552C15.3625 6.99614 15.6858 7.33993 15.6858 7.75248C15.6858 7.79546 15.6858 7.83413 15.6732 7.87711C15.5976 8.24668 15.2743 8.50882 14.9048 8.50023H2.46239C1.2824 8.50452 0.333374 9.48433 0.333374 10.6876C0.333374 10.6876 0.333374 10.6919 0.333374 10.6962V20.0774C0.333374 21.2806 1.2866 22.2561 2.46239 22.2561H7.02697C7.18655 22.2561 7.34612 22.2347 7.50149 22.2003V17.9502C7.50149 16.6008 7.50149 14.0825 10.8609 14.0825H19.1838C20.1538 14.0825 20.5569 13.7903 20.5569 11.9725V0.382479C19.9901 0.116041 19.3686 -0.0171777 18.7429 1.17666e-05ZM12.1291 5.30298C11.558 5.30727 11.0918 4.83886 11.0876 4.25442C11.0834 3.66997 11.5412 3.19296 12.1123 3.18867C12.6834 3.18437 13.1495 3.65278 13.1537 4.23723C13.1537 4.23723 13.1537 4.24582 13.1537 4.25012C13.1537 4.83027 12.696 5.29868 12.1291 5.30298Z" fill="white"/>
<path id="Vector_2" d="M27.3094 7.94586H22.7448C22.5684 7.94586 22.392 7.97165 22.2241 8.02321V11.9854C22.2241 12.9351 22.2241 15.8144 19.1712 15.8144H10.8567C9.24419 15.8144 9.177 16.4461 9.177 17.9631V29.566C9.7481 29.8625 10.3822 30.0086 11.0247 29.9957H19.3476C21.1784 29.9957 22.665 28.4744 22.665 26.6008V23.2059H14.8334C14.3715 23.2144 13.9893 22.832 13.9809 22.3593C13.9809 22.3077 13.9809 22.2518 13.9935 22.2003C14.0775 21.7791 14.4471 21.4783 14.867 21.4869H27.3094C28.4264 21.4869 29.3334 20.5587 29.3334 19.4156C29.3334 19.4156 29.3334 19.4156 29.3334 19.4113V10.0172C29.3334 8.8741 28.4264 7.94586 27.3094 7.94586ZM17.1808 24.8432C17.7519 24.8432 18.2138 25.3159 18.2138 25.9003C18.2138 26.4848 17.7519 26.9575 17.1808 26.9575C16.6097 26.9575 16.1478 26.4848 16.1478 25.9003C16.1478 25.3159 16.6097 24.8432 17.1808 24.8432Z" fill="white"/>
</g>
<defs>
<clipPath id="clip0_38_67">
<rect width="29" height="30" fill="white" transform="translate(0.333374)"/>
</clipPath>
</defs>
</svg>
