<svg width="40" height="40" viewBox="0 0 40 40" fill="none" xmlns="http://www.w3.org/2000/svg">
<path d="M29.15 13.08L21.5 5V11.47L25.82 15.79C29.35 19.32 29.35 25.03 25.82 28.56C22.29 32.09 16.58 32.09 13.05 28.56C9.52 25.03 9.52 19.32 13.05 15.79L17.75 11.09V5L10.1 12.65C5.3 17.45 5.3 25.47 10.1 30.27C14.9 35.07 22.92 35.07 27.72 30.27C32.52 25.47 32.52 17.88 29.15 13.08ZM21.5 15.5C20.67 15.5 20 16.17 20 17C20 17.83 20.67 18.5 21.5 18.5C22.33 18.5 23 17.83 23 17C23 16.17 22.33 15.5 21.5 15.5Z" fill="black"/>
</svg>
