<svg width="40" height="40" viewBox="0 0 40 40" fill="none" xmlns="http://www.w3.org/2000/svg">
<path d="M20 8C13.37 8 8 13.37 8 20C8 26.63 13.37 32 20 32C26.63 32 32 26.63 32 20C32 13.37 26.63 8 20 8ZM20 10.5C21.93 10.5 23.73 11.06 25.25 12.02L16.5 20L13.18 16.68C15 12.97 17.25 10.5 20 10.5ZM12.02 25.25C11.06 23.73 10.5 21.93 10.5 20C10.5 17.25 12.97 15 16.68 13.18L20 16.5L12.02 25.25ZM20 29.5C18.07 29.5 16.27 28.94 14.75 27.98L23.5 20L26.82 23.32C25 27.03 22.75 29.5 20 29.5ZM27.98 14.75C28.94 16.27 29.5 18.07 29.5 20C29.5 22.75 27.03 25 23.32 26.82L20 23.5L27.98 14.75Z" fill="black"/>
</svg>
