<svg width="40" height="40" viewBox="0 0 40 40" fill="none" xmlns="http://www.w3.org/2000/svg">
<g clip-path="url(#clip0_1515_2381)">
<g clip-path="url(#clip1_1515_2381)">
<path d="M23.2297 18.1811L16.1779 25.259L29.3687 31.9975C29.6054 32.1139 29.8872 32.0194 30.0064 31.7856C30.0717 31.6515 30.0743 31.4949 30.0056 31.3582L23.2297 18.1811Z" fill="white"/>
<path d="M15.4183 24.2406L22.1914 17.4423L13.2966 15.3536L15.4183 24.2406Z" fill="white"/>
<path d="M20.3839 7.44654L13.6847 14.1706L22.4855 16.2396L20.3839 7.44654Z" fill="white"/>
<path opacity="0.5" d="M13.9226 25.7418L4.99644 23.6446L6.88495 32.7656C6.88495 32.7656 6.89922 32.7798 6.90493 32.7855L13.9226 25.7418Z" fill="white"/>
<path d="M30.7161 8.88598C30.7161 8.88598 30.7019 8.87176 30.6962 8.86607L21.5568 7.02276L23.6729 15.9554L30.7161 8.88598Z" fill="white"/>
<path d="M31.458 29.5238L31.3706 10.01L24.1482 17.2592L30.5781 29.7277C30.7067 29.9525 30.9946 30.0346 31.2222 29.9031C31.3588 29.8231 31.4497 29.6805 31.458 29.5238Z" fill="white"/>
<path opacity="0.5" d="M12.1151 15.746L5.41589 22.4701L14.2167 24.5391L12.1151 15.746Z" fill="white"/>
<path opacity="0.5" d="M8.02002 33.4471L27.5511 33.4623C27.8103 33.4646 28.0236 33.2563 28.0259 32.997C28.0285 32.8176 27.9256 32.6525 27.7688 32.5702L15.2595 26.1808L8.02002 33.4471Z" fill="white"/>
</g>
</g>
<defs>
<clipPath id="clip0_1515_2381">
<rect width="40" height="40" fill="white"/>
</clipPath>
<clipPath id="clip1_1515_2381">
<rect width="33.7406" height="24.0193" fill="white" transform="translate(1 26.9023) rotate(-45.1061)"/>
</clipPath>
</defs>
</svg>
