<svg width="39" height="37" viewBox="0 0 39 37" fill="none" xmlns="http://www.w3.org/2000/svg">
<g id="Layer_1" clip-path="url(#clip0_38_183)">
<path id="Vector" d="M22.2297 15.1811L15.1779 22.259L28.3687 28.9975C28.6054 29.1139 28.8872 29.0194 29.0065 28.7856C29.0717 28.6515 29.0743 28.4949 29.0057 28.3582L22.2297 15.1811Z" fill="white"/>
<path id="Vector_2" d="M14.4183 21.2406L21.1914 14.4423L12.2966 12.3536L14.4183 21.2406Z" fill="white"/>
<path id="Vector_3" d="M19.3839 4.4466L12.6847 11.1707L21.4855 13.2396L19.3839 4.4466Z" fill="white"/>
<path id="Vector_4" opacity="0.5" d="M12.9226 22.7418L3.99647 20.6446L5.88498 29.7656C5.88498 29.7656 5.89925 29.7798 5.90496 29.7855L12.9226 22.7418Z" fill="white"/>
<path id="Vector_5" d="M29.7161 5.88604C29.7161 5.88604 29.7019 5.87182 29.6962 5.86614L20.5568 4.02282L22.6729 12.9554L29.7161 5.88604Z" fill="white"/>
<path id="Vector_6" d="M30.458 26.5238L30.3706 7.01003L23.1482 14.2592L29.5781 26.7277C29.7067 26.9525 29.9946 27.0346 30.2222 26.9031C30.3588 26.8231 30.4497 26.6805 30.458 26.5238Z" fill="white"/>
<path id="Vector_7" opacity="0.5" d="M11.1151 12.746L4.41589 19.4701L13.2167 21.5391L11.1151 12.746Z" fill="white"/>
<path id="Vector_8" opacity="0.5" d="M7.02005 30.4471L26.5511 30.4623C26.8103 30.4646 27.0236 30.2563 27.026 29.997C27.0285 29.8176 26.9256 29.6525 26.7688 29.5702L14.2595 23.1808L7.02005 30.4471Z" fill="white"/>
</g>
<defs>
<clipPath id="clip0_38_183">
<rect width="33.7406" height="24.0193" fill="white" transform="translate(0 23.9023) rotate(-45.1061)"/>
</clipPath>
</defs>
</svg>
